<svg id="Calque_1" data-name="Calque 1" xmlns="http://www.w3.org/2000/svg" xmlns:xlink="http://www.w3.org/1999/xlink" viewBox="0 0 691.98 577.83"><defs><style>.cls-1{fill:none;}.cls-2{clip-path:url(#clip-path);}.cls-3{opacity:0.31;}.cls-4{fill:#6a5;}.cls-10,.cls-11,.cls-15,.cls-16,.cls-5{fill:#a2de96;}.cls-21,.cls-22,.cls-5{opacity:0.49;}.cls-11,.cls-13,.cls-15,.cls-16,.cls-18,.cls-20,.cls-21,.cls-22,.cls-23,.cls-25,.cls-5,.cls-9{isolation:isolate;}.cls-6{fill:#e27b27;}.cls-13,.cls-7{fill:#eec130;}.cls-8{fill:#fcfcfc;}.cls-19,.cls-9{fill:#1a3549;}.cls-9{opacity:0.1;}.cls-11{opacity:0.3;}.cls-12,.cls-18,.cls-20,.cls-21,.cls-23,.cls-32{fill:#233a2b;}.cls-13{opacity:0.54;}.cls-14{fill:#79874e;}.cls-15,.cls-23{opacity:0.24;}.cls-16,.cls-26{opacity:0.2;}.cls-17{fill:#e9e4be;}.cls-18{opacity:0.19;}.cls-20{opacity:0.22;}.cls-22{fill:#537b9e;}.cls-24,.cls-25{fill:#cb7433;}.cls-25{opacity:0.4;}.cls-27{opacity:0.28;}.cls-28{fill:#f9b175;}.cls-29{fill:#f69d4b;}.cls-30{fill:#bc5037;}.cls-31{opacity:0.32;}.cls-32{stroke:#233a2b;stroke-linecap:round;stroke-linejoin:round;stroke-width:1.42px;}</style><clipPath id="clip-path"><rect class="cls-1" x="34.74" y="113.97" width="620.69" height="479.7"/></clipPath></defs><g id="PRINT"><g class="cls-2"><g class="cls-3"><path class="cls-4" d="M347.26,576.64c13.14-23.59,37.4-38,60.94-49.48a370.5,370.5,0,0,1,42.31-17.59c14.43-5,29.12-8.77,43.94-12.4,13.86-3.38,27.82-7.37,40.07-14.9,7.34-4.5,14.44-10.47,18.22-18.37,6.28-13.14,1.17-27.11-7.7-37.62-8.48-10-20.73-18.46-33.59-21.59-4.93-1.2-10.46-1.68-15.17.55-5.61,2.67-8.34,10-7.91,15.88.59,8.3,6.5,14.8,12.83,19.61,7.37,5.61,16.12,9.51,24.95,12.2,8.2,2.48,16.72,3.93,25.26,2.79,14.54-1.94,28.25-7.61,41-14.62a300.85,300.85,0,0,0,35.8-23.21,207.37,207.37,0,0,0,31-28.09c18.54-20.95,31.79-47.42,32.68-75.78a90.83,90.83,0,0,0-1.64-20.09c-.61-3.16-5.43-1.82-4.82,1.33,5.15,26.57-3.36,54.11-18.22,76.17-15.15,22.5-36.76,39.84-59.32,54.47-11.69,7.58-23.83,14.81-36.94,19.68-10,3.7-20.86,6.61-31.55,5.22A80.78,80.78,0,0,1,515,443.25c-7-3.4-14.42-7.92-18.78-14.55a15.62,15.62,0,0,1-2.91-8.87,13.46,13.46,0,0,1,.94-4.77,14.69,14.69,0,0,1,1.09-2.26c.16-.3.35-.59.52-.89l.19-.26c.31-.47-.37.41,0,0s.56-.62.87-.91c.07-.07.67-.54.35-.3s.36-.23.46-.3c.39-.24.8-.44,1.21-.64-.5.24-.09,0,.17,0l.8-.26c.45-.13.9-.23,1.36-.32.23,0,.8-.11.22,0l.93-.09a22.36,22.36,0,0,1,3.47.05l.94.09.4.06c.67.11,1.33.23,2,.38a40.1,40.1,0,0,1,4,1.09,48.47,48.47,0,0,1,7.9,3.34,67,67,0,0,1,15.94,11.35,48.22,48.22,0,0,1,11.18,15.39A26.11,26.11,0,0,1,550,457c-1.75,6.89-6.73,12.72-12.45,17.14-9.88,7.64-21.91,12.08-33.81,15.42-14.09,4-28.42,6.86-42.41,11.18a382.9,382.9,0,0,0-41.75,15.61A296.22,296.22,0,0,0,383,535.18c-10.74,6.63-21,14.38-29.34,23.9a85.83,85.83,0,0,0-10.68,15c-1.57,2.81,2.75,5.33,4.32,2.52Z"/></g><g class="cls-3"><path class="cls-4" d="M5,300.36a129,129,0,0,1,15.06-32c6.14-9.12,14.24-17.5,24.54-21.81a41.21,41.21,0,0,1,17-3.09c6.9.18,13.64,1.83,20.26,3.63,6.79,1.86,13.54,4,20.48,5.17,6.74,1.19,14.31,1.93,21-.1a15,15,0,0,0,8-5.63,18.15,18.15,0,0,0,2.85-7.75c.87-5.73.12-11.72,1.71-17.34a17.9,17.9,0,0,1,8.3-10.39,35.39,35.39,0,0,1,14.48-4.51c12.85-1.39,25.4,2.73,38.21,2.85,6.91.07,13.93-1.08,20-4.55a34.59,34.59,0,0,0,12.65-13.18,62.77,62.77,0,0,0,6.37-17.56,137.67,137.67,0,0,0,2.77-21.88A153.57,153.57,0,0,0,234,106q-1.41-5.4-3.19-10.68c-1-3-5.86-1.73-4.82,1.33A149.56,149.56,0,0,1,233.82,142a147.92,147.92,0,0,1-1.4,22.94A84,84,0,0,1,228,183.14a36.61,36.61,0,0,1-9.5,14.43c-4.74,4.2-10.91,6.25-17.15,6.71-13,1-25.74-3.47-38.75-3-10.57.38-22.51,3.49-28.76,12.74-3.24,4.79-3.82,10.51-4.06,16.13-.2,4.93.1,11.13-3.66,14.83-2.18,2.14-5.35,2.88-8.3,3.17a49.83,49.83,0,0,1-10.36-.13c-6.74-.74-13.33-2.65-19.84-4.48-13-3.65-26.61-7.19-40-3.32C24.55,246.87,11,270.08,3,291.06q-1.53,3.94-2.83,8c-1,3.06,3.82,4.38,4.82,1.33Z"/></g></g><path class="cls-5" d="M481.32,498.32c8.88-.17,17.77-.49,26.65-.43q9.12,0,18.21-.39a177.14,177.14,0,0,1,24.8,1,63.77,63.77,0,0,1,12.53,2.56c1,.32,2,.76,3.06,1.17a4.18,4.18,0,0,1,2,1.76,1.92,1.92,0,0,1,.17,2,12.71,12.71,0,0,1-1.46,2.53,19.6,19.6,0,0,1-3.06,2.77,42.85,42.85,0,0,1-12.41,5.78,85.22,85.22,0,0,1-16.11,3.33c-11.3,1.33-22.64,1.67-34,2.15-9.4.4-18.81.7-28.22.79-5.36,0-10.72-.05-16.09-.07-4.66,0-9.32.19-14,0s-9.67-.15-14.5-.8c-2.27-.31-4.56-.33-6.85-.61A78.41,78.41,0,0,1,405,517.5a30.36,30.36,0,0,1-6.89-3.72,10.15,10.15,0,0,1-3.8-4.43,2.34,2.34,0,0,1,.23-2.58,6,6,0,0,1,2.77-2,57,57,0,0,1,11-3.13,165.2,165.2,0,0,1,32.1-2.52c4.66.06,9.32-.13,14-.29,9-.32,17.95-.38,26.92-.54Z"/><path class="cls-6" d="M326.19,397.73c-.25-.75.23-1.07.58-1.45a76.22,76.22,0,0,1,7.47-6.66,274.73,274.73,0,0,1,24.36-18c6.81-4.54,13.79-8.79,20.88-12.89,9.9-5.72,19.82-11.42,30-16.61,9.25-4.71,18.62-9.21,28.17-13.3,5.59-2.38,11.16-4.8,16.8-7,5.89-2.34,11.82-4.57,17.84-6.55,4.43-1.46,8.8-3.11,13.22-4.58,5.42-1.81,10.86-3.59,16.34-5.22q9.87-2.94,19.88-5.29a239.18,239.18,0,0,1,27.5-4.91c1-.11,1.93-.18,2.89-.21.57,0,1.41-.34,1.56.43.11.57-1,.4-1.16.8-.47,1-1.54,1.07-2.2,1.78-1.43,1.54-3,2.94-4.42,4.51a199.54,199.54,0,0,1-15.63,15.56,162,162,0,0,1-13.88,10.91c-4.07,2.92-8.16,5.82-12.32,8.61-3.73,2.49-7.56,4.83-11.35,7.22-.66.41-1.36.66-1.47,1.67-.07.67-.77,1.14-1.37,1.53-1.62,1.06-3.19,2.22-4.88,3.15-5.09,2.78-10.19,5.57-15.37,8.19-6.13,3.09-12.47,5.71-18.81,8.35-3.16,1.31-6.21,2.92-9.31,4.39a228.53,228.53,0,0,1-25.19,10.16,81.53,81.53,0,0,1-8.06,2.49c-.94.21-1.87.5-2.78-.18-.38-.29-.84-.08-1.26.05q-10,3.21-20.33,5.64c-4.53,1.08-9.11,1.95-13.66,2.95a139.07,139.07,0,0,1-20.1,2.71c-5.16.36-10.35.4-15.53.58A30.23,30.23,0,0,0,326.19,397.73Z"/><path class="cls-7" d="M471.79,335.39a26.94,26.94,0,0,0-16.54-18,29.65,29.65,0,0,0-14.78-1.57,31.77,31.77,0,0,0-4.33,1.05,25.17,25.17,0,0,0-8.08,3.76,29.3,29.3,0,0,0-11.55,15.92c-.18.58-.38,1.17-.55,1.76C412.6,350,417,363,426.69,369.68a25.3,25.3,0,0,0,14.82,4.72,31.71,31.71,0,0,0,18.56-5.64,30,30,0,0,0,10.79-14A29.28,29.28,0,0,0,471.79,335.39Z"/><path class="cls-8" d="M468.57,343.64a24.32,24.32,0,0,0-5.07-15.75,19.23,19.23,0,0,0-6-4.67c-4.3-2.47-8.82-3.92-13.83-3.48a26.22,26.22,0,0,0-14.2,5.11,24.66,24.66,0,0,0-8.89,12.59A28.2,28.2,0,0,0,419,343.7a24.36,24.36,0,0,0,4.55,16.43,18.29,18.29,0,0,0,6.68,5.85,40.87,40.87,0,0,0,6.86,2.69,17.17,17.17,0,0,0,8.6.39A28,28,0,0,0,457,364.2C464,359.15,468.39,352.58,468.57,343.64Z"/><path class="cls-9" d="M457.53,323.25a19.23,19.23,0,0,1,6,4.67,24.34,24.34,0,0,1,5,15.72c-.18,8.91-4.57,15.48-11.55,20.56a28,28,0,0,1-11.31,4.86,17.17,17.17,0,0,1-8.6-.39,40.87,40.87,0,0,1-6.86-2.69,18.29,18.29,0,0,1-6.68-5.85,24.53,24.53,0,0,1-4.6-14.49s15.17.07,24.82-9.4S457.53,323.25,457.53,323.25Z"/><path class="cls-10" d="M436.71,324.23a10.17,10.17,0,0,1-2.74-.54,127.83,127.83,0,0,1-20.31-7.25A85.47,85.47,0,0,1,402.8,311,51.91,51.91,0,0,1,391,301.5a17.45,17.45,0,0,1-2.69-4.3,12.07,12.07,0,0,1-1-4,8.49,8.49,0,0,1,7.5-9.38,9.37,9.37,0,0,1,1.5,0,20.91,20.91,0,0,1,8.16,2.65c2.44,1.31,4.8,2.77,7.19,4.16.28-.61-.15-1-.38-1.4a63.55,63.55,0,0,1-3.52-7.64,39.37,39.37,0,0,1-2.91-16.12,22.62,22.62,0,0,1,1.07-6.16A11.51,11.51,0,0,1,412.3,252a6.89,6.89,0,0,1,3-.67,12.56,12.56,0,0,1,6.52,1.9,20.83,20.83,0,0,1,4.66,3.87,37.31,37.31,0,0,1,7.86,13.25c.58,1.7,1.07,3.42,1.63,5.13a.83.83,0,0,0,.46.51c.29.07.4-.23.48-.48.34-1.08.65-2.18,1-3.25a13.82,13.82,0,0,1,4.19-6,7.68,7.68,0,0,1,8.43-1.49,15.84,15.84,0,0,1,9,8.82c2.16,5.34,2.22,10.86,1.07,16.54a51.53,51.53,0,0,1-5.27,13.37,108.09,108.09,0,0,1-13.62,20c-.12.13-.25.24-.38.36a19.83,19.83,0,0,1-1.1-6.05c-.07-1.64-.15-3.28-.09-4.92a57.14,57.14,0,0,1,2.67-16.67,73.84,73.84,0,0,1,3.39-9.07c1.35-2.75,2.36-5.65,3.54-8.47a3.46,3.46,0,0,0,.38-1.76.71.71,0,0,0-.78-.62.73.73,0,0,0-.35.15,13.12,13.12,0,0,0-2.85,3.77c-1.6,3.78-3.43,7.46-4.76,11.36a55.14,55.14,0,0,0-3.24,13.7,20.31,20.31,0,0,1-.5,2.56.7.7,0,0,1-.33.37c-.29.14-.49-.07-.61-.29a6.38,6.38,0,0,1-.51-1.17,136.73,136.73,0,0,0-5.6-14.8,121.55,121.55,0,0,0-6.4-13.62c-1.17-2.06-2.36-4.1-3.52-6.17a5.18,5.18,0,0,0-1.68-1.86,1.57,1.57,0,0,0-2.06.43,1,1,0,0,0,.22,1.39c1,.9,1.25,2.2,1.89,3.29,2.86,4.84,4.72,10.18,6.88,15.35,2,4.71,3.59,9.57,5.34,14.37,1,2.72,1.93,5.46,2.88,8.19a.54.54,0,0,1-.16.45.42.42,0,0,1-.42-.08,14.81,14.81,0,0,0-3.47-3.28,12.69,12.69,0,0,1-1.42-1.42,13.19,13.19,0,0,0-4.58-3.5,6.23,6.23,0,0,1-1.1-.62,49.35,49.35,0,0,0-8.18-4.43c-2.91-1.33-5.9-2.5-8.85-3.74-.54-.23-1.06-.52-1.61-.71-1-.34-1.67-.07-2,.67-.22.56.09,1.12,1,1.56,2.56,1.26,5.17,2.43,7.71,3.73,2.92,1.49,5.88,2.9,8.79,4.39,1.73.89,3.3,2,5,2.9A18.06,18.06,0,0,1,430,313.3a10.45,10.45,0,0,0,2,1.93,15.48,15.48,0,0,1,3.29,3.47,9.33,9.33,0,0,1,1.73,4.74A1.84,1.84,0,0,1,436.71,324.23Z"/><path class="cls-11" d="M459.5,273.64c2.16,5.34,2.22,10.86,1.07,16.54a51.53,51.53,0,0,1-5.27,13.37,108.09,108.09,0,0,1-13.62,20c-.12.13-.25.24-.38.36a19.83,19.83,0,0,1-1.1-6.05c-.07-1.64-.15-3.28-.09-4.92a56.81,56.81,0,0,1,2.67-16.67,73.84,73.84,0,0,1,3.39-9.07c1.35-2.75,2.36-5.65,3.54-8.47a3.46,3.46,0,0,0,.38-1.76.71.71,0,0,0-.78-.62.73.73,0,0,0-.35.15,13.12,13.12,0,0,0-2.85,3.77c-1.6,3.78-3.43,7.46-4.76,11.36a55.14,55.14,0,0,0-3.24,13.7,20.31,20.31,0,0,1-.5,2.56.7.7,0,0,1-.33.37c-.29.14-.49-.07-.61-.29a6.38,6.38,0,0,1-.51-1.17,136.73,136.73,0,0,0-5.6-14.8,121.55,121.55,0,0,0-6.4-13.62c-1.17-2.06-2.36-4.1-3.52-6.17a5.18,5.18,0,0,0-1.68-1.86,1.57,1.57,0,0,0-2.06.43,1,1,0,0,0,.22,1.39c1,.9,1.25,2.2,1.89,3.29,2.86,4.84,4.72,10.18,6.88,15.35,2,4.71,3.59,9.57,5.34,14.37,1,2.72,1.93,5.46,2.88,8.19a.54.54,0,0,1-.16.45.42.42,0,0,1-.42-.08,14.81,14.81,0,0,0-3.47-3.28,12.69,12.69,0,0,1-1.42-1.42,13.19,13.19,0,0,0-4.58-3.5,6.23,6.23,0,0,1-1.1-.62,49.35,49.35,0,0,0-8.18-4.43c-2.91-1.33-5.9-2.5-8.85-3.74-.54-.23-1.06-.52-1.61-.71-1-.34-1.67-.07-2,.67-.22.56.09,1.12,1,1.56,2.56,1.26,5.17,2.43,7.71,3.73,2.92,1.49,5.88,2.9,8.79,4.39,1.73.89,3.3,2,5,2.9a18.06,18.06,0,0,1,5.13,4.07,10.45,10.45,0,0,0,2,1.93,15.48,15.48,0,0,1,3.29,3.47A9.33,9.33,0,0,1,437,323.5a2.32,2.32,0,0,1-.28.72,10.17,10.17,0,0,1-2.74-.54,127.83,127.83,0,0,1-20.31-7.25A85.47,85.47,0,0,1,402.78,311a51.91,51.91,0,0,1-11.8-9.48s18.4,10.16,44.35-4.31S459.5,273.64,459.5,273.64Z"/><path class="cls-12" d="M436.71,324.23c.1-.24.31-.5.28-.72a9.33,9.33,0,0,0-1.73-4.74A15.48,15.48,0,0,0,432,315.3a10.45,10.45,0,0,1-2-1.93,18.06,18.06,0,0,0-5.13-4.07c-1.72-.9-3.29-2-5-2.9-2.91-1.49-5.87-2.9-8.79-4.39-2.54-1.3-5.15-2.47-7.71-3.73-.89-.44-1.2-1-1-1.56.29-.74,1-1,2-.67.55.19,1.07.48,1.61.71,3,1.24,5.94,2.41,8.85,3.74a49.35,49.35,0,0,1,8.18,4.43,6.23,6.23,0,0,0,1.1.62,13.19,13.19,0,0,1,4.58,3.5,12.69,12.69,0,0,0,1.42,1.42,14.81,14.81,0,0,1,3.47,3.28.42.42,0,0,0,.42.08.54.54,0,0,0,.16-.45c-.95-2.73-1.89-5.47-2.88-8.19-1.75-4.8-3.37-9.66-5.34-14.37-2.16-5.17-4-10.51-6.88-15.35-.64-1.09-.93-2.39-1.89-3.29a1,1,0,0,1-.22-1.39,1.57,1.57,0,0,1,2.06-.43,5.18,5.18,0,0,1,1.68,1.86c1.16,2.07,2.35,4.11,3.52,6.17a121.55,121.55,0,0,1,6.4,13.62,136.73,136.73,0,0,1,5.6,14.8,6.38,6.38,0,0,0,.51,1.17c.12.22.32.43.61.29a.7.7,0,0,0,.33-.37,20.31,20.31,0,0,0,.5-2.56,55.14,55.14,0,0,1,3.24-13.7c1.33-3.9,3.16-7.58,4.76-11.36a13.12,13.12,0,0,1,2.85-3.77.7.7,0,0,1,1,.11.82.82,0,0,1,.15.36,3.46,3.46,0,0,1-.38,1.76c-1.18,2.82-2.19,5.72-3.54,8.47a73.84,73.84,0,0,0-3.39,9.07A56.81,56.81,0,0,0,440.13,313c-.06,1.64,0,3.28.09,4.92a19.83,19.83,0,0,0,1.1,6.05c.66,3.1,1.35,6.19,2,9.29a41.93,41.93,0,0,1,.77,7.16,6.73,6.73,0,0,1-.07,1,.58.58,0,0,1-.56.45.64.64,0,0,1-.47-.1,3,3,0,0,1-.83-1.55c-.55-1.88-1.08-3.77-1.62-5.66-.85-3-1.72-5.89-2.57-8.84C437.74,325,437.47,324.41,436.71,324.23Z"/><path class="cls-8" d="M443,190.64a8.08,8.08,0,0,1,4.15,5.19,18.68,18.68,0,0,1,.58,8.66c-.42,2.53-.88,5.06-1.54,7.53a40.2,40.2,0,0,0,.13,22.44,3.49,3.49,0,0,1,.16,1.36,1.18,1.18,0,0,1-.62.76,1.25,1.25,0,0,1-.95-.14,2.19,2.19,0,0,1-.65-.8c-2.31-3.78-4.69-7.53-6.88-11.38A45,45,0,0,1,431.3,208a23.42,23.42,0,0,1,1.42-12.31c1.32-3.17,4-4.78,7.1-5.66A3.93,3.93,0,0,1,443,190.64Z"/><path class="cls-8" d="M417.77,208.64a19.83,19.83,0,0,1,6.26,5.48,48.71,48.71,0,0,1,6.14,10.54c1.53,3.65,3.11,7.28,4.66,10.92a6.59,6.59,0,0,1,.5,1.3,1.12,1.12,0,0,1-.5,1.21.8.8,0,0,1-1.11-.19l-.06-.11c-1.84-3.27-5.09-4.68-8.21-6.2-3.56-1.73-7.25-3.19-10.83-4.88a22.47,22.47,0,0,1-7.26-4.78c-2.76-3-3.68-6.39-2.25-10.3a7.11,7.11,0,0,1,6.34-4.71A10.73,10.73,0,0,1,417.77,208.64Z"/><path class="cls-8" d="M375.31,246.33a43.72,43.72,0,0,1-3.94-2.79c-2.3-1.9-4.65-3.71-6.91-5.66-4.8-4.17-9.78-8.13-14.68-12.18q-6.15-5.08-12.63-9.72a25.76,25.76,0,0,0-3.16-1.77,1.38,1.38,0,0,0-1.16,0,32.87,32.87,0,0,0-1.71,9.93,43.63,43.63,0,0,0,1.23,12.21,36.44,36.44,0,0,0,5.79,11.3,26.47,26.47,0,0,0,10.26,7.87,24.09,24.09,0,0,0,7.57,1.41,27.87,27.87,0,0,0,7.67-.63,34.68,34.68,0,0,0,4-.84,39.88,39.88,0,0,0,8-4,20.17,20.17,0,0,0,2.95-1.62A11.12,11.12,0,0,0,375.31,246.33Z"/><path class="cls-7" d="M332.83,214.16a32.87,32.87,0,0,0-1.71,9.93,43.63,43.63,0,0,0,1.23,12.21,36.44,36.44,0,0,0,5.79,11.3,26.47,26.47,0,0,0,10.26,7.87,24.09,24.09,0,0,0,7.57,1.41,27.87,27.87,0,0,0,7.67-.63,34.68,34.68,0,0,0,4-.84,39.88,39.88,0,0,0,8-4,20.17,20.17,0,0,0,2.95-1.62,12.09,12.09,0,0,1,1.38,1c1.2,1.06,1.28,2.28,0,3.28-2,1.59-3.88,3.39-6.05,4.8a38.13,38.13,0,0,1-15,5.72,20.12,20.12,0,0,1-8.14-.43,32.69,32.69,0,0,1-20.61-15.27,34.83,34.83,0,0,1-4.74-13.84,38.59,38.59,0,0,1,.54-13.21c.53-2.52,1-5,1.49-7.58a2.65,2.65,0,0,1,.64-1.53,1.46,1.46,0,0,1,1.73-.46A8.09,8.09,0,0,1,332.83,214.16Z"/><path class="cls-13" d="M349.25,237.64c.42-.09.65-.16.89-.2a.84.84,0,0,1,1.05.57.91.91,0,0,1-.05.63c-.89,2-1.77,4-2.8,5.87a3,3,0,0,1-2.69,1.72,2.14,2.14,0,0,1-2.4-1.85,2,2,0,0,1,.1-.95,3.83,3.83,0,0,1,.59-1.32A15.91,15.91,0,0,1,349.25,237.64Z"/><path class="cls-13" d="M356.33,240.87c.57-.14,1-.11,1.2.3a2.15,2.15,0,0,1,.31.89,12.81,12.81,0,0,1-1.73,6.92,2.48,2.48,0,0,1-3.38.79,1.57,1.57,0,0,1-.72-.92,3,3,0,0,1,.32-2.77c1.09-1.59,2.24-3.14,3.39-4.69A3.05,3.05,0,0,1,356.33,240.87Z"/><path class="cls-13" d="M365.6,245.21c.07,1.57.65,3.57-.4,5.48a3.31,3.31,0,0,1-.85,1.14,2.4,2.4,0,0,1-2.48.46,2.25,2.25,0,0,1-1-2.29,7.2,7.2,0,0,1,.54-2.33c.45-1.12,1-2.19,1.56-3.27a1.18,1.18,0,0,1,1.31-.82C365,243.64,365.22,243.89,365.6,245.21Z"/><path class="cls-13" d="M342.35,231.4c.7-.16,1.4-.37,2.11-.49a.75.75,0,0,1,.8.71.7.7,0,0,1,0,.29,5.39,5.39,0,0,1-.48,1.1,18.84,18.84,0,0,1-4.37,4.13,2,2,0,0,1-.91.31,1.79,1.79,0,0,1-2.11-1.4,1.75,1.75,0,0,1,0-.82,3,3,0,0,1,1.48-2.11c.5-.25.94-.64,1.45-.86s1.37-.49,2-.73Z"/><path class="cls-13" d="M338.87,228c-.76.27-1.5.58-2.28.78A1.29,1.29,0,0,1,335,228a1.62,1.62,0,0,1,.22-2,2.48,2.48,0,0,1,1.68-.84c1.68-.12,3.36-.18,5-.26a.73.73,0,0,1,.78.44.8.8,0,0,1-.37,1,10.5,10.5,0,0,1-1.45.84c-.65.29-1.35.49-2,.73Z"/><path class="cls-10" d="M501.79,329.64a6.65,6.65,0,0,1-.65-.65c-5-6.06-11.31-10.57-17.71-15-3-2.08-6-4.19-9-6.29a15.24,15.24,0,0,1-4-4.2c-.45-.69-1-1.32-1.42-2a20.1,20.1,0,0,1-1.62-2.6c-1.71-3.66-1.16-4.74,1.4-7.31a23.61,23.61,0,0,1,4-2.78c.68-.45,1.43-.79,2.12-1.22a1.55,1.55,0,0,0,.83-2,1.58,1.58,0,0,0-.37-.54,20.31,20.31,0,0,0-3.32-3.17,28.67,28.67,0,0,1-8.39-10.4,16,16,0,0,1-1.73-6.46c-.07-2.85.85-5.17,3.43-6.72a5.92,5.92,0,0,1,3.18-.89c1.43,0,2.85.19,4.27.27.59,0,1.17.44,1.86,0,.11-.77-.62-1.15-.93-1.73s-.77-1.2-1.13-1.82c-4.92-8.45-6.46-17.31-3.28-26.76a21.3,21.3,0,0,1,4.91-8,16.51,16.51,0,0,1,6.61-4.22,11.51,11.51,0,0,1,6.32-.21,17.65,17.65,0,0,1,7.82,4,27.8,27.8,0,0,1,5.87,7,64.76,64.76,0,0,1,7,18.22c.17.79.43,1.56.66,2.33,0,.08.15.12.34.27a15.72,15.72,0,0,1,5.29-4.43c2.69-1.25,5.45-2.32,8.53-1.51a7.49,7.49,0,0,1,5.58,5.16,13.32,13.32,0,0,1,.48,5.75c-.49,4.28-1.87,8.34-3.09,12.43a2.2,2.2,0,0,0-.21,1.49,6.12,6.12,0,0,0,.87.2c3.62.41,5.89,2.57,7.39,5.71a14.37,14.37,0,0,1,1,9.29,38.58,38.58,0,0,1-2.86,8.36c-3.24,6.86-7.58,13-11.67,19.37-1.82,2.83-3.53,5.73-5.08,8.71s-3,6-4.52,9c-.53,1.1-.79,2.32-1.34,3.41-.66,1.32-.9,3-2.61,3.54a95.31,95.31,0,0,0-.39-10c-.56-3.92.73-7.2,2.53-10.44.44-.8,1-1.56,1.46-2.33a140.38,140.38,0,0,1,12.19-15.63c1.26-1.47,2.55-2.91,3.81-4.38.16-.19.37-.47,0-.75a.69.69,0,0,0-.84,0,3,3,0,0,0-.72.56c-1.34,1.39-2.68,2.78-4,4.2-2.7,2.9-5.06,6.12-8,8.83h-.41a3.84,3.84,0,0,1,.19-.88c1.9-4.18,3.84-8.35,6.09-12.36,2.79-5,5.81-9.84,8.94-14.62.41-.62,1.17-1.25.64-2.18-.27-.48-1-.06-2,1.37a151.69,151.69,0,0,0-9.86,15.48c-.47.87-.71,1.93-1.77,2.59a8.2,8.2,0,0,1,.14-1.31,194.9,194.9,0,0,0,3.59-20.22,19.06,19.06,0,0,0,.15-2.13.61.61,0,0,0-.51-.68.59.59,0,0,0-.68.51h0c-.45,2.41-.88,4.83-1.3,7.24-2.17,12.39-4.73,24.68-9.53,36.38-.1.24-.1.65-.58.54-.51-.58-.37-1.32-.43-2A184.87,184.87,0,0,0,503.05,291a16.91,16.91,0,0,1,.62-9c.23-.68.47-1.36.64-2A25.52,25.52,0,0,1,512,267.84c3-2.92,6.12-5.73,9.18-8.59a7.94,7.94,0,0,0,.67-.63c.28-.35,1-.67.43-1.2s-.93,0-1.35.27a23.1,23.1,0,0,0-4.12,3.18c-1.86,1.72-3.7,3.46-5.86,5.47a5.48,5.48,0,0,1,1.09-2.83c2.14-3.35,4.27-6.71,6.43-10.06a5,5,0,0,0,.93-1.9.7.7,0,0,0-.24-.49.61.61,0,0,0-.54-.08,4.56,4.56,0,0,0-1.1,1c-3.24,4.82-6.74,9.49-9.38,14.7-.26.52-.37,1.17-1.25,1.32.18-1.45.37-2.85.53-4.26.25-2.13.5-4.26.7-6.4a9.49,9.49,0,0,0-.11-2.13,1,1,0,0,0-.58-.61c-.38-.16-.55.2-.61.49a8.12,8.12,0,0,0-.11,1.21,133.67,133.67,0,0,1-3.33,20.56,12.24,12.24,0,0,1-1.08,3.17l-.87-.1a2.27,2.27,0,0,1-.25-.55q-1.71-6.69-3.4-13.37a11.6,11.6,0,0,1-.34-2.11,96.17,96.17,0,0,1-.33-11c.22-5.11.66-10.2,1.17-15.28.06-.59.37-1.23-.16-1.74-.3-.3-.95.54-1.16,1.56-.09.4-.13.81-.19,1.21a105.84,105.84,0,0,0-1.31,16.19c0,.58.21,1.22-.41,1.75-.79-.44-.88-1.3-1.15-2-2-5.57-4.3-11-6.7-16.45a17.86,17.86,0,0,0-2.34-4.29c-.25-.31-.61-.6-1-.21a.68.68,0,0,0-.16.83c.21.46.41.93.63,1.39,2.29,4.91,4.17,10,6,15.08a4.43,4.43,0,0,1,.54,2.74,2.86,2.86,0,0,1-.71-.58c-2.26-3.43-5.18-6.32-7.73-9.52-1.46-1.84-3.12-3.51-4.7-5.26a4.42,4.42,0,0,0-2-1.41c-.28-.08-.63-.08-.76.29a.83.83,0,0,0,0,.54,1.52,1.52,0,0,0,.35.49,225.87,225.87,0,0,1,14.54,17.4,24.31,24.31,0,0,1,4.81,9.45,212.45,212.45,0,0,1,3.7,21.12c.06.4.06.81.12,1.22a.84.84,0,0,1-.48,1,1.16,1.16,0,0,1-.7-.43c-1.07-1.49-2.07-3-3.18-4.5a18.89,18.89,0,0,1-3.24-5.79c-2.27-7.1-5.16-14-7.31-21.13-.06-.2-.12-.39-.19-.58-.16-.41-.47-.76-.89-.59s-.44.63-.34,1.06.19,1,.34,1.5c.37,1.27.74,2.55,1.17,3.8,1.46,4.25,3,8.49,4.4,12.75.16.48.73,1.08-.11,1.63-2.23-2.38-4.47-4.76-6.68-7.16a31.49,31.49,0,0,0-7.78-5.89,14.69,14.69,0,0,0-1.67-.75.7.7,0,0,0-.81.23.55.55,0,0,0,0,.78l0,0a15.71,15.71,0,0,0,1.84,1.61,39.35,39.35,0,0,1,8,7.13c1.8,2.22,3.61,4.44,5.53,6.56a77.21,77.21,0,0,1,12.8,20.43,8.33,8.33,0,0,1,.7,2.95c.11,2.35.27,4.69.38,7,0,.45.22,1-.68,1.31-1.26-1.35-2.57-2.78-3.91-4.18a7.66,7.66,0,0,1-1.41-2.34,134.61,134.61,0,0,0-11.85-20.7,2.22,2.22,0,0,0-.64-.62.66.66,0,0,0-.55,0,.69.69,0,0,0-.31.47,2.06,2.06,0,0,0,.57,1.37c3.13,4.79,5.87,9.81,8.67,14.8a2.8,2.8,0,0,1,.63,2,1.52,1.52,0,0,1-.48-.17c-2.4-2.22-4.76-4.48-7.18-6.68-1.21-1.1-2.49-2.11-3.76-3.14a.77.77,0,0,0-1.09,0h0a1,1,0,0,0-.09,1.36,5,5,0,0,0,.6.69c1.54,1.5,3,3,4.63,4.48,2.73,2.46,5.25,5.14,7.77,7.83.21.22.2.35-.19.47a4.41,4.41,0,0,1-.72-.26c-3.77-2.05-7.72-3.73-11.65-5.46a6.23,6.23,0,0,0-1.44-.42.69.69,0,0,0-.44.33.59.59,0,0,0,0,.55,5,5,0,0,0,1.15.95c1.46.74,2.94,1.43,4.43,2.1a88.74,88.74,0,0,1,13.94,7.67,22.44,22.44,0,0,1,3.46,3,4,4,0,0,1,1.19,2.72c.09,2.14.4,4.27.56,6.41A37,37,0,0,1,501.79,329.64Z"/><path class="cls-12" d="M501.79,329.64a36.51,36.51,0,0,0-.39-6.09c-.16-2.14-.47-4.27-.56-6.41a4,4,0,0,0-1.19-2.72,22.44,22.44,0,0,0-3.46-3,88.74,88.74,0,0,0-13.94-7.67c-1.49-.67-3-1.36-4.43-2.1a5,5,0,0,1-1.15-.95.59.59,0,0,1,0-.55c.08-.16.32-.36.44-.33a6.23,6.23,0,0,1,1.44.42c3.93,1.73,7.88,3.41,11.65,5.46a4.41,4.41,0,0,0,.72.26c.39-.12.4-.25.19-.47-2.52-2.69-5-5.37-7.77-7.83-1.59-1.44-3.09-3-4.63-4.48a5,5,0,0,1-.6-.69,1,1,0,0,1,.09-1.36.76.76,0,0,1,1.08,0h0c1.27,1,2.55,2,3.76,3.14,2.42,2.2,4.78,4.46,7.18,6.68a1.52,1.52,0,0,0,.48.17,2.8,2.8,0,0,0-.63-2c-2.8-5-5.54-10-8.67-14.8a2.06,2.06,0,0,1-.57-1.37.69.69,0,0,1,.31-.47.66.66,0,0,1,.55,0,2.22,2.22,0,0,1,.64.62,134.61,134.61,0,0,1,11.85,20.7,7.66,7.66,0,0,0,1.41,2.34c1.34,1.4,2.65,2.83,3.91,4.18.9-.28.7-.86.68-1.31-.11-2.35-.27-4.69-.38-7a8.33,8.33,0,0,0-.7-2.95,77.28,77.28,0,0,0-12.81-20.42c-1.92-2.12-3.73-4.34-5.53-6.56a39.35,39.35,0,0,0-8-7.13,15.71,15.71,0,0,1-1.84-1.61.55.55,0,0,1,0-.78l0,0a.7.7,0,0,1,.81-.23,14.69,14.69,0,0,1,1.67.75,31.68,31.68,0,0,1,7.78,5.89c2.21,2.4,4.45,4.78,6.68,7.16.84-.55.27-1.15.11-1.63-1.44-4.26-2.94-8.5-4.4-12.75-.43-1.25-.8-2.53-1.17-3.8-.15-.49-.23-1-.34-1.5s-.07-.9.34-1.06.73.18.89.59c.07.19.13.38.19.58,2.15,7.14,5,14,7.31,21.13a18.89,18.89,0,0,0,3.24,5.79c1.11,1.46,2.11,3,3.18,4.5.15.21.51.48.7.43.43-.12.54-.53.48-1s-.06-.82-.12-1.22a212.45,212.45,0,0,0-3.7-21.12,24.31,24.31,0,0,0-4.81-9.45,225.87,225.87,0,0,0-14.54-17.4,1.52,1.52,0,0,1-.35-.49.83.83,0,0,1,0-.54c.13-.37.48-.37.76-.29a4.42,4.42,0,0,1,2,1.41c1.58,1.75,3.24,3.42,4.7,5.26,2.55,3.2,5.47,6.09,7.73,9.52a2.86,2.86,0,0,0,.71.58,4.43,4.43,0,0,0-.54-2.74c-1.85-5.09-3.73-10.17-6-15.08-.22-.46-.42-.93-.63-1.39a.68.68,0,0,1,.16-.83c.41-.39.77-.1,1,.21a17.86,17.86,0,0,1,2.34,4.29c2.4,5.41,4.67,10.88,6.7,16.45.27.74.36,1.6,1.15,2,.62-.53.42-1.17.41-1.75a105.45,105.45,0,0,1,1.31-16.16c.06-.4.1-.81.19-1.21.21-1,.86-1.86,1.16-1.56.53.51.22,1.15.16,1.74-.51,5.08-1,10.17-1.17,15.28a96.17,96.17,0,0,0,.33,11,11.6,11.6,0,0,0,.34,2.11q1.68,6.69,3.4,13.37a2.27,2.27,0,0,0,.25.55,2,2,0,0,0,0,.59c.08.25.19.64.35.67.32.06.47-.27.51-.57a5.81,5.81,0,0,0,0-.59,12.24,12.24,0,0,0,1.08-3.17,133.67,133.67,0,0,0,3.33-20.56,8.12,8.12,0,0,1,.11-1.21c.06-.29.23-.65.61-.49a1,1,0,0,1,.58.61,9.49,9.49,0,0,1,.11,2.13c-.2,2.14-.45,4.27-.7,6.4-.16,1.41-.35,2.81-.53,4.26.88-.15,1-.8,1.25-1.32,2.64-5.21,6.14-9.88,9.38-14.7a4.56,4.56,0,0,1,1.1-1,.61.61,0,0,1,.54.08.7.7,0,0,1,.24.49,5,5,0,0,1-.93,1.9c-2.16,3.35-4.29,6.71-6.43,10.06a5.48,5.48,0,0,0-1.09,2.83c2.16-2,4-3.75,5.86-5.47a23.1,23.1,0,0,1,4.12-3.18c.42-.25.9-.71,1.35-.27s-.15.85-.43,1.2a7.94,7.94,0,0,1-.67.63c-3.06,2.86-6.17,5.67-9.18,8.59a25.53,25.53,0,0,0-7.48,12.08c-.17.69-.41,1.37-.64,2a16.91,16.91,0,0,0-.62,9c1.32,6.62,1.73,13.35,2.28,20.06.06.69-.08,1.43.43,2,.48.11.48-.3.58-.54,4.8-11.7,7.36-24,9.53-36.38.42-2.41.85-4.83,1.3-7.24a.59.59,0,0,1,.68-.51.61.61,0,0,1,.51.68,19.06,19.06,0,0,1-.15,2.13,194.9,194.9,0,0,1-3.59,20.22,8.2,8.2,0,0,0-.14,1.31c1.06-.66,1.3-1.72,1.77-2.59a150.41,150.41,0,0,1,9.87-15.46c1-1.43,1.7-1.85,2-1.37.53.93-.23,1.56-.64,2.18-3.13,4.78-6.15,9.63-8.94,14.62-2.25,4-4.19,8.18-6.09,12.36a3.84,3.84,0,0,0-.19.88c-.17.24-.37.47-.52.72a1.75,1.75,0,0,0-.14.51,1.49,1.49,0,0,0,.53-.17,1.31,1.31,0,0,0,.54-1c2.91-2.71,5.27-5.93,8-8.83,1.32-1.42,2.66-2.81,4-4.2a3,3,0,0,1,.72-.56.69.69,0,0,1,.84,0c.33.28.12.56,0,.75-1.26,1.47-2.55,2.91-3.81,4.38a140.38,140.38,0,0,0-12.19,15.63c-.5.77-1,1.53-1.46,2.33-1.8,3.24-3.09,6.52-2.53,10.44a95.31,95.31,0,0,1,.39,10c-.12,3.56-.24,7.11-.34,10.67a1.79,1.79,0,0,1-.35,1.43,1,1,0,0,1-.8.15,1.39,1.39,0,0,1-.61-.66,10.17,10.17,0,0,1-1-3.18c-.35-2.73-.71-5.46-1.09-8.17C502.26,332.27,502,331,501.79,329.64Zm-3.37-40.42-.28-.05v.28c0,.06.18,0,.27.06Z"/><path class="cls-14" d="M512.76,303.37a1.31,1.31,0,0,1-.54,1,1.49,1.49,0,0,1-.53.17,1.75,1.75,0,0,1,.14-.51c.15-.25.35-.48.52-.72Z"/><path class="cls-14" d="M502.22,280.05a5.81,5.81,0,0,1,0,.59c0,.3-.19.63-.51.57-.16,0-.27-.42-.35-.67a2,2,0,0,1,0-.59Z"/><path class="cls-14" d="M498.42,289.25v.29c-.09,0-.23,0-.27-.06s0-.19,0-.28Z"/><path class="cls-10" d="M381,393.69a5.65,5.65,0,0,1-.92,0c-7.84-.49-15.45,1-23,2.71-3.59.79-7.18,1.55-10.78,2.31a15.19,15.19,0,0,1-5.78,0c-.81-.13-1.62-.19-2.43-.33a21.5,21.5,0,0,1-3-.59c-3.84-1.24-4.26-2.39-4.39-6a23.86,23.86,0,0,1,.71-4.83c.14-.8.4-1.59.55-2.39a1.55,1.55,0,0,0-.92-2,1.51,1.51,0,0,0-.63-.09,20,20,0,0,0-4.57.26,28.68,28.68,0,0,1-13.33-1,16,16,0,0,1-5.91-3.14,7,7,0,0,1-2.6-7,5.89,5.89,0,0,1,1.53-2.93c1-1,2.08-2,3.11-2.93.43-.41,1.12-.56,1.28-1.35-.49-.61-1.27-.34-1.9-.51s-1.4-.25-2.1-.41c-9.53-2.18-17.06-7.1-21.8-15.87a21.14,21.14,0,0,1-2.49-9.06,16.18,16.18,0,0,1,1.43-7.7,11.44,11.44,0,0,1,4.16-4.77,17.63,17.63,0,0,1,8.28-3,27.75,27.75,0,0,1,9.13.5,64.84,64.84,0,0,1,18.1,7.31c.69.42,1.43.75,2.16,1.11a1.3,1.3,0,0,0,.42-.07,15.84,15.84,0,0,1,.38-6.88c.92-2.83,2-5.57,4.73-7.27a7.46,7.46,0,0,1,7.57-.55,13.23,13.23,0,0,1,4.53,3.57c2.79,3.28,4.81,7.06,7,10.75.25.43.42.93.95,1.17a7,7,0,0,0,.74-.51c2.77-2.36,5.9-2.55,9.21-1.5a14.48,14.48,0,0,1,7.49,5.59,38.23,38.23,0,0,1,4.09,7.81c2.81,7,4.36,14.44,6.2,21.75.82,3.27,1.76,6.49,2.89,9.66s2.29,6.32,3.51,9.46c.43,1.13,1.15,2.16,1.57,3.3.51,1.38,1.57,2.7.81,4.33a93.2,93.2,0,0,0-7.61-6.58c-3.24-2.26-4.76-5.44-5.9-9-.28-.87-.48-1.76-.7-2.65a140.94,140.94,0,0,1-3.1-19.58c-.22-1.92-.39-3.85-.6-5.77,0-.26-.09-.6-.52-.55s-.5.33-.57.62a2.79,2.79,0,0,0-.08.91c.1,1.93.2,3.86.34,5.79.27,4,1,7.87,1,11.86l-.31.26a4.07,4.07,0,0,1-.51-.74c-1.76-4.24-3.48-8.5-4.88-12.88-1.74-5.45-3.22-11-4.57-16.52-.18-.72-.12-1.71-1.16-2-.54-.13-.7.66-.34,2.37A147.66,147.66,0,0,0,362,356c.32.94.93,1.83.68,3.06a9.07,9.07,0,0,1-.86-1,195.91,195.91,0,0,0-12.29-16.38,19.67,19.67,0,0,0-1.45-1.57.6.6,0,0,0-.81-.06.58.58,0,0,0-.13.82c1.46,2,2.93,3.94,4.4,5.89,7.58,10,14.81,20.3,20.08,31.8.11.24.41.52,0,.79-.77,0-1.22-.63-1.76-1.05a177.14,177.14,0,0,0-16.21-12,16.88,16.88,0,0,1-6.17-6.6c-.34-.63-.67-1.27-1.06-1.87a25.58,25.58,0,0,1-3.72-13.71c-.07-4.19,0-8.38,0-12.57a7.06,7.06,0,0,0,0-.92c-.06-.45.17-1.16-.59-1.13s-.61.69-.72,1.17a23.08,23.08,0,0,0-.48,5.18v8a5.61,5.61,0,0,1-1.33-2.72l-3-11.57a5.11,5.11,0,0,0-.75-2,.67.67,0,0,0-.52-.15.51.51,0,0,0-.42.33,4.2,4.2,0,0,0,0,1.5c1.32,5.67,2.34,11.4,4.34,16.89.2.55.61,1.07.11,1.82-.93-1.12-1.83-2.22-2.75-3.3-1.39-1.64-2.77-3.28-4.2-4.88a9.19,9.19,0,0,0-1.62-1.37,1,1,0,0,0-.85,0c-.37.16-.23.54-.06.77a10.06,10.06,0,0,0,.81.92,131.07,131.07,0,0,1,12.75,16.46,12.12,12.12,0,0,1,1.58,3l-.67.58a4.77,4.77,0,0,1-.57-.2q-6-3.31-12.09-6.65a11.18,11.18,0,0,1-1.77-1.19,97.2,97.2,0,0,1-8.28-7.29c-3.59-3.64-7-7.44-10.38-11.28-.38-.45-.63-1.11-1.37-1.08-.43,0-.25,1.07.34,1.92.24.34.5.65.76,1a107.08,107.08,0,0,0,10.93,12c.43.4,1,.68,1,1.5-.86.28-1.55-.24-2.27-.55-5.46-2.32-11-4.4-16.6-6.34a18.1,18.1,0,0,0-4.73-1.22c-.4,0-.86,0-.85.61a.68.68,0,0,0,.49.68l1.45.49c5.16,1.68,10.15,3.77,15.13,5.89a4.56,4.56,0,0,1,2.38,1.48,2.88,2.88,0,0,1-.92.12c-4-.69-8.15-.53-12.23-.85-2.34-.19-4.7-.12-7.05-.16a4.42,4.42,0,0,0-2.37.47c-.25.15-.49.41-.31.76a.83.83,0,0,0,.39.37,1.71,1.71,0,0,0,.6.08,225.49,225.49,0,0,1,22.64,1.25,24.25,24.25,0,0,1,10.19,3,210,210,0,0,1,18,11.71c.33.23.63.51,1,.74a.75.75,0,0,1,.38,1c-.08.17-.53.25-.79.22-1.82-.23-3.63-.57-5.45-.75a18.91,18.91,0,0,1-6.45-1.58c-6.74-3.19-13.74-5.79-20.43-9.09-.19-.09-.37-.18-.56-.25-.4-.17-.87-.18-1,.24s.17.76.54,1a14.64,14.64,0,0,0,1.33.77c1.18.6,2.37,1.2,3.58,1.74,4.1,1.84,8.22,3.64,12.31,5.49.47.21,1.3.2,1.12,1.2h-9.79A31.46,31.46,0,0,0,313,369a12.44,12.44,0,0,0-1.68.71.7.7,0,0,0-.39.75.54.54,0,0,0,.55.54h.05a15.41,15.41,0,0,0,2.43-.25,39.3,39.3,0,0,1,10.65-.95c2.85.21,5.71.4,8.57.44a77.49,77.49,0,0,1,23.66,4.6,8,8,0,0,1,2.64,1.51c1.79,1.52,3.61,3,5.4,4.52.34.3.9.55.49,1.39h-5.72a7.6,7.6,0,0,1-2.67-.57,134.42,134.42,0,0,0-23.22-5.48,1.91,1.91,0,0,0-.89,0,.61.61,0,0,0-.35.43.69.69,0,0,0,.14.55,2.06,2.06,0,0,0,1.29.45c5.63,1,11.17,2.4,16.73,3.77.65.16,1.4.21,1.86.88a1.37,1.37,0,0,1-.45.23c-3.26.23-6.52.42-9.78.68-1.63.13-3.25.38-4.86.6a.78.78,0,0,0-.76.81,1,1,0,0,0,.94,1,4.61,4.61,0,0,0,.91,0c2.15-.09,4.3-.14,6.43-.32,3.67-.31,7.35-.32,11-.33.31,0,.4.09.21.46a6.11,6.11,0,0,1-.67.35c-4.08,1.36-8,3.1-11.94,4.78a7,7,0,0,0-1.3.76.62.62,0,0,0-.06.56c.06.15.27.37.41.36a4.73,4.73,0,0,0,1.49-.19c1.53-.56,3.05-1.17,4.55-1.8a88.24,88.24,0,0,1,15.12-4.95,21.88,21.88,0,0,1,4.57-.47,4,4,0,0,1,2.79,1c1.63,1.4,3.39,2.63,5.07,4A38.13,38.13,0,0,1,381,393.69Z"/><path class="cls-4" d="M381,393.69a38,38,0,0,0-4.72-3.88c-1.68-1.34-3.44-2.57-5.07-4a4,4,0,0,0-2.79-1,21.88,21.88,0,0,0-4.57.47,88.24,88.24,0,0,0-15.12,5c-1.5.63-3,1.24-4.55,1.8a4.73,4.73,0,0,1-1.49.19c-.14,0-.35-.21-.41-.36a.62.62,0,0,1,.06-.56,7,7,0,0,1,1.3-.76c3.94-1.68,7.86-3.42,11.94-4.78a6.11,6.11,0,0,0,.67-.35c.19-.37.1-.46-.21-.46-3.68,0-7.36,0-11,.33-2.13.18-4.28.23-6.43.32a4.61,4.61,0,0,1-.91,0,1,1,0,0,1-.94-1,.78.78,0,0,1,.76-.81c1.61-.22,3.23-.47,4.86-.6,3.26-.26,6.52-.45,9.78-.68a1.37,1.37,0,0,0,.45-.23c-.46-.67-1.21-.72-1.86-.88-5.56-1.37-11.1-2.79-16.73-3.77a2.07,2.07,0,0,1-1.39-.52.73.73,0,0,1-.14-.55.61.61,0,0,1,.35-.43,1.91,1.91,0,0,1,.89,0,134.06,134.06,0,0,1,23.2,5.51,7.6,7.6,0,0,0,2.67.57h5.72c.41-.84-.15-1.09-.49-1.39-1.79-1.52-3.61-3-5.4-4.52a8,8,0,0,0-2.64-1.51,77.49,77.49,0,0,0-23.66-4.6c-2.86,0-5.72-.23-8.57-.44a39.3,39.3,0,0,0-10.65.95,15.41,15.41,0,0,1-2.43.25.55.55,0,0,1-.6-.5v0a.7.7,0,0,1,.39-.75,12.44,12.44,0,0,1,1.68-.71,31.46,31.46,0,0,1,9.62-1.66h9.79c.18-1-.65-1-1.12-1.2-4.09-1.85-8.21-3.65-12.31-5.49-1.21-.54-2.4-1.14-3.58-1.74-.46-.23-.89-.52-1.33-.77s-.7-.57-.54-1,.63-.41,1-.24c.19.07.37.16.56.25,6.69,3.3,13.69,5.9,20.43,9.09a19,19,0,0,0,6.53,1.55c1.82.18,3.63.52,5.45.75.26,0,.71-.05.79-.22.21-.39,0-.75-.38-1s-.64-.51-1-.74a210,210,0,0,0-18-11.71,24.25,24.25,0,0,0-10.19-3A225,225,0,0,0,296,350.64a1.71,1.71,0,0,1-.6-.08.83.83,0,0,1-.39-.37c-.18-.35.06-.61.31-.76a4.42,4.42,0,0,1,2.37-.47c2.35,0,4.71,0,7.05.16,4.08.32,8.18.16,12.23.85a2.88,2.88,0,0,0,.92-.12,4.56,4.56,0,0,0-2.38-1.48c-5-2.12-10-4.21-15.13-5.89L299,342a.68.68,0,0,1-.49-.68c0-.57.45-.63.85-.61a18.1,18.1,0,0,1,4.73,1.22c5.6,1.94,11.14,4,16.6,6.34.72.31,1.41.83,2.27.55,0-.82-.57-1.1-1-1.5a107.08,107.08,0,0,1-10.93-12,11.39,11.39,0,0,1-.76-1c-.59-.85-.77-1.9-.34-1.92.74,0,1,.63,1.37,1.08,3.37,3.84,6.79,7.64,10.38,11.28a97.2,97.2,0,0,0,8.28,7.29,11.18,11.18,0,0,0,1.77,1.19q6,3.34,12.09,6.65a3.6,3.6,0,0,0,.58.2,1.57,1.57,0,0,0,.43.38c.23.12.6.31.73.21s.13-.53-.07-.76a5.51,5.51,0,0,0-.43-.41,12.12,12.12,0,0,0-1.58-3A131.07,131.07,0,0,0,330.68,340a10.06,10.06,0,0,1-.81-.92c-.17-.23-.31-.61.06-.77a1,1,0,0,1,.85,0,9.19,9.19,0,0,1,1.62,1.37c1.43,1.6,2.81,3.24,4.2,4.88.92,1.08,1.82,2.18,2.75,3.3.5-.75.09-1.27-.11-1.82-2-5.49-3-11.22-4.34-16.89a4.2,4.2,0,0,1,0-1.5c0-.13.25-.3.42-.33a.67.67,0,0,1,.52.15,5.11,5.11,0,0,1,.75,2q1.47,5.79,3,11.57a5.61,5.61,0,0,0,1.33,2.72v-8a23.08,23.08,0,0,1,.48-5.18c.11-.48.09-1.15.72-1.17s.53.68.59,1.13a7.06,7.06,0,0,1,0,.92c0,4.19-.06,8.38,0,12.57a25.58,25.58,0,0,0,3.72,13.71c.39.6.72,1.24,1.06,1.87a16.88,16.88,0,0,0,6.17,6.6,177.14,177.14,0,0,1,16.21,12c.54.42,1,1,1.76,1.05.41-.27.11-.55,0-.79-5.27-11.5-12.5-21.75-20.08-31.8-1.47-2-2.94-3.92-4.4-5.89a.58.58,0,0,1,.13-.82.6.6,0,0,1,.81.06,19.67,19.67,0,0,1,1.45,1.57,195.23,195.23,0,0,1,12.32,16.42,9.07,9.07,0,0,0,.86,1c.25-1.23-.36-2.12-.68-3.06a147.66,147.66,0,0,1-4.57-17.78c-.36-1.71-.2-2.5.34-2.37,1,.25,1,1.24,1.16,2,1.35,5.55,2.83,11.07,4.57,16.52,1.4,4.38,3.12,8.64,4.88,12.88a4.07,4.07,0,0,0,.51.74,6.72,6.72,0,0,0,.18.87,1.43,1.43,0,0,0,.27.46,2,2,0,0,0,.23-.51,1.24,1.24,0,0,0-.37-1.08c0-4-.73-7.9-1-11.86-.14-1.93-.24-3.86-.34-5.79a2.79,2.79,0,0,1,.08-.91c.07-.29.2-.57.57-.62s.49.29.52.55c.21,1.92.38,3.85.6,5.77a140.94,140.94,0,0,0,3.1,19.58c.22.89.42,1.78.7,2.65,1.14,3.53,2.66,6.71,5.9,9a92.69,92.69,0,0,1,7.6,6.55c2.51,2.51,5,5,7.56,7.53.36.36.81.69.81,1.23a.94.94,0,0,1-.45.69,1.36,1.36,0,0,1-.89,0,10,10,0,0,1-3-1.43c-2.23-1.6-4.47-3.2-6.72-4.78C383.2,395.12,382.08,394.41,381,393.69Zm-31.84-25.14-.23.17c.07.07.14.18.21.18s.15-.1.23-.15Z"/><path class="cls-14" d="M369.24,367.72a1.24,1.24,0,0,1,.37,1.08,2,2,0,0,1-.23.51,1.43,1.43,0,0,1-.27-.46,6.72,6.72,0,0,1-.18-.87Z"/><path class="cls-14" d="M345,359.49a5.51,5.51,0,0,1,.43.41c.2.23.34.57.07.76s-.5-.09-.73-.21a1.57,1.57,0,0,1-.43-.38Z"/><path class="cls-14" d="M349.14,368.55l.21.2c-.08.05-.16.16-.23.15s-.14-.11-.21-.18Z"/><path class="cls-15" d="M334.4,383.44s17-1.39,20.05-23.22-4.05-27.35-4.05-27.35a8.73,8.73,0,0,0,.74-.5c2.77-2.37,5.9-2.55,9.22-1.5a14.36,14.36,0,0,1,7.48,5.59,38.39,38.39,0,0,1,4.15,7.8c2.81,7.05,4.36,14.44,6.2,21.75.82,3.27,1.77,6.49,2.9,9.66s2.29,6.33,3.5,9.46c.44,1.14,1.15,2.17,1.57,3.31.52,1.38,1.57,2.7.81,4.33a93.06,93.06,0,0,0-7.6-6.58c-3.25-2.27-4.77-5.44-5.9-9-.28-.87-.48-1.77-.71-2.65a142.45,142.45,0,0,1-3.1-19.58c-.21-1.93-.38-3.85-.6-5.77,0-.26-.09-.6-.51-.55s-.5.33-.58.62a3.09,3.09,0,0,0-.08.91c.11,1.93.21,3.86.34,5.79.28,4,1,7.87,1,11.85l-.32.26a4.07,4.07,0,0,1-.51-.74c-1.76-4.24-3.47-8.5-4.87-12.88-1.74-5.45-3.22-11-4.58-16.52-.18-.72-.12-1.71-1.16-2-.53-.13-.69.67-.34,2.38A149.6,149.6,0,0,0,362,356.09c.31.93.92,1.83.68,3.05a8.12,8.12,0,0,1-.86-1,196.87,196.87,0,0,0-12.32-16.42,19.67,19.67,0,0,0-1.45-1.57.62.62,0,0,0-.87,0,.6.6,0,0,0-.07.73q2.17,3,4.4,5.89c7.57,10,14.81,20.3,20.08,31.8.1.24.4.52,0,.79-.78,0-1.22-.63-1.76-1.06-5.28-4.18-10.49-8.48-16.22-12a17,17,0,0,1-6.16-6.61c-.34-.63-.68-1.26-1.06-1.86a25.43,25.43,0,0,1-3.72-13.72c-.08-4.19,0-8.38,0-12.57a7.06,7.06,0,0,0,0-.92c-.06-.44.18-1.16-.58-1.13s-.62.7-.73,1.17a23.68,23.68,0,0,0-.48,5.18v8a5.63,5.63,0,0,1-1.32-2.73l-3-11.56a4.77,4.77,0,0,0-.75-2,.63.63,0,0,0-.52-.16.55.55,0,0,0-.42.34,4.72,4.72,0,0,0,0,1.5c1.31,5.66,2.33,11.4,4.34,16.89.2.55.6,1.07.11,1.82-.94-1.13-1.83-2.22-2.75-3.3-1.39-1.64-2.77-3.28-4.2-4.88a9.31,9.31,0,0,0-1.63-1.38,1,1,0,0,0-.85,0c-.37.17-.22.54-.06.78a9.94,9.94,0,0,0,.81.91,132.68,132.68,0,0,1,12.76,16.54,12.47,12.47,0,0,1,1.58,3l-.67.57a2.84,2.84,0,0,1-.58-.2l-12.08-6.64a13.46,13.46,0,0,1-1.78-1.19,97.2,97.2,0,0,1-8.28-7.29c-3.59-3.64-7-7.44-10.37-11.29-.39-.44-.64-1.11-1.38-1.07-.42,0-.25,1.07.35,1.92.23.33.5.65.75,1a106.22,106.22,0,0,0,10.94,12c.43.39,1,.68,1,1.49-.87.28-1.56-.24-2.28-.54-5.45-2.32-11-4.4-16.6-6.34a17.26,17.26,0,0,0-4.73-1.22c-.39,0-.85,0-.85.6a.66.66,0,0,0,.5.68l1.45.49c5.15,1.69,10.14,3.78,15.13,5.9A4.56,4.56,0,0,1,317.9,350a3.58,3.58,0,0,1-.92.13c-4-.69-8.15-.53-12.22-.86-2.34-.18-4.7-.11-7.05-.15a4.34,4.34,0,0,0-2.38.47c-.24.15-.49.41-.3.75a.74.74,0,0,0,.39.37,1.46,1.46,0,0,0,.59.08c7.58-.12,15.11.63,22.64,1.26A24.32,24.32,0,0,1,328.84,355a210,210,0,0,1,18,11.71c.33.24.64.52,1,.75a.76.76,0,0,1,.39,1c-.09.17-.53.25-.79.22-1.82-.24-3.63-.57-5.46-.75a19,19,0,0,1-6.44-1.59c-6.74-3.18-13.74-5.78-20.43-9.08l-.56-.26c-.41-.16-.88-.17-1,.25s.17.75.55,1a14.83,14.83,0,0,0,1.32.78c1.19.59,2.37,1.19,3.58,1.73,4.11,1.84,8.22,3.64,12.32,5.5.47.21,1.29.2,1.12,1.2h-9.8A31.71,31.71,0,0,0,313,369.1a11.39,11.39,0,0,0-1.69.71.7.7,0,0,0-.39.74.54.54,0,0,0,.56.55h.05a16.69,16.69,0,0,0,2.43-.25,39.19,39.19,0,0,1,10.64-1c2.86.2,5.72.4,8.58.44a77.19,77.19,0,0,1,23.66,4.6,8.25,8.25,0,0,1,2.64,1.5c1.78,1.53,3.6,3,5.39,4.53.35.3.91.54.49,1.39h-5.71a7.92,7.92,0,0,1-2.68-.56,134.09,134.09,0,0,0-23.21-5.48,2.22,2.22,0,0,0-.89,0,.65.65,0,0,0-.35.44.65.65,0,0,0,.13.54,2.12,2.12,0,0,0,1.39.52c5.64,1,11.18,2.41,16.73,3.77.66.16,1.41.21,1.87.89-.16.08-.3.22-.45.23-3.26.23-6.53.42-9.79.68-1.62.13-3.24.38-4.86.6a.78.78,0,0,0-.75.81h0a1,1,0,0,0,.93,1,7.06,7.06,0,0,0,.92,0c2.14-.1,4.29-.14,6.43-.32,3.67-.32,7.35-.33,11-.33.31,0,.4.09.22.46a4.86,4.86,0,0,1-.68.35c-4.08,1.35-8,3.1-11.94,4.78a6.94,6.94,0,0,0-1.29.76c-.11.08-.13.39-.07.55s.27.38.41.37a4.73,4.73,0,0,0,1.49-.19c1.53-.56,3.05-1.17,4.56-1.8a88.24,88.24,0,0,1,15.12-4.95,21.73,21.73,0,0,1,4.56-.48,3.9,3.9,0,0,1,2.79,1c1.63,1.39,3.4,2.62,5.07,4a39.89,39.89,0,0,1,4.72,3.88,5.53,5.53,0,0,1-.91,0c-7.85-.48-15.45,1-23,2.72-3.59.79-7.19,1.55-10.78,2.31a15.66,15.66,0,0,1-5.79,0c-.8-.14-1.62-.2-2.42-.33a19,19,0,0,1-3-.6c-3.85-1.24-4.26-2.38-4.39-6a24.05,24.05,0,0,1,.7-4.84c.14-.8.41-1.58.56-2.38"/><path class="cls-10" d="M247.82,306.78c-.16.23-.29.48-.47.69-4.49,5.45-7.38,11.79-10.17,18.2-1.32,3-2.66,6-4,9.06a14,14,0,0,1-3,4.23c-.53.52-1,1.08-1.52,1.6a22,22,0,0,1-2,1.87c-2.93,2.14-4,1.84-6.68,0a20.72,20.72,0,0,1-3.15-3.06c-.51-.52-.94-1.13-1.44-1.66a1.4,1.4,0,0,0-1.91-.43,1.33,1.33,0,0,0-.42.43,16.57,16.57,0,0,0-2.22,3.46,26,26,0,0,1-7.73,9.19A14.52,14.52,0,0,1,197.7,353a6.29,6.29,0,0,1-6.52-1.87,5.27,5.27,0,0,1-1.33-2.65c-.24-1.26-.32-2.55-.49-3.82-.07-.52.18-1.1-.31-1.63-.7,0-.92.73-1.37,1.11s-.93.89-1.41,1.31c-6.61,5.79-14.16,8.67-23,7.49a19.33,19.33,0,0,1-7.91-2.95,15,15,0,0,1-4.86-5.11,10.2,10.2,0,0,1-1.27-5.54,15.74,15.74,0,0,1,2.21-7.59,24.49,24.49,0,0,1,5.17-6.38,57.44,57.44,0,0,1,14.87-9.32c.67-.29,1.3-.65,1.94-1,.06,0,.08-.15.18-.35a14.15,14.15,0,0,1-4.82-3.9c-1.57-2.16-3-4.41-2.79-7.27a6.71,6.71,0,0,1,3.59-5.81,11.66,11.66,0,0,1,5-1.41,66,66,0,0,1,11.5.59,2,2,0,0,0,1.35-.07q0-.4,0-.81c-.26-3.26,1.26-5.63,3.77-7.49a12.88,12.88,0,0,1,8-2.5,33.69,33.69,0,0,1,7.86,1.09c6.61,1.67,12.81,4.44,19.1,7,2.82,1.13,5.66,2.14,8.56,3s5.81,1.66,8.73,2.43c1.06.28,2.19.31,3.24.6,1.28.36,2.79.28,3.58,1.7a82.62,82.62,0,0,0-8.8,2.06c-3.36,1.17-6.47.6-9.64-.43-.78-.26-1.54-.58-2.3-.89a127.43,127.43,0,0,1-15.89-8.07c-1.51-.85-3-1.75-4.52-2.6-.2-.12-.48-.25-.67.08a.63.63,0,0,0,.15.75,3.16,3.16,0,0,0,.62.53q2.19,1.43,4.39,2.81c3,1.89,6.27,3.41,9.16,5.52V302a5.48,5.48,0,0,1-.81,0c-4-1-8-2-12-3.24-4.88-1.61-9.68-3.44-14.43-5.39-.62-.25-1.31-.81-2-.18-.38.32.11.85,1.55,1.5a135.57,135.57,0,0,0,15.35,6,5.08,5.08,0,0,1,2.59,1.12,9.55,9.55,0,0,1-1.18.1,177.39,177.39,0,0,0-18.45.3,12.3,12.3,0,0,0-1.91.23.54.54,0,0,0-.47.56.53.53,0,0,0,.53.53c2.2,0,4.4-.06,6.61-.1,11.3-.21,22.58-.07,33.73,2.16.23,0,.59,0,.58.41-.43.56-1.11.56-1.7.73a156.48,156.48,0,0,0-17.31,5.45,15.33,15.33,0,0,1-8.06,1c-.64-.09-1.28-.18-1.92-.21a23.11,23.11,0,0,1-11.94-4.53c-3.09-2.15-6.11-4.41-9.16-6.62a5,5,0,0,0-.66-.48c-.36-.19-.76-.74-1.14-.17s.18.81.47,1.14a20.68,20.68,0,0,0,3.52,3.08c1.83,1.35,3.68,2.68,5.83,4.24a5.16,5.16,0,0,1-2.69-.47c-3.32-1.32-6.65-2.62-10-4a4.2,4.2,0,0,0-1.83-.49.53.53,0,0,0-.39.29.64.64,0,0,0,0,.49,4.15,4.15,0,0,0,1.09.8c4.81,2,9.53,4.31,14.58,5.74.5.15,1.1.13,1.38.88l-3.85.26c-1.92.15-3.85.29-5.77.49a7.34,7.34,0,0,0-1.86.46.88.88,0,0,0-.44.62c-.07.36.28.45.54.45a8.05,8.05,0,0,0,1.09-.11,119.28,119.28,0,0,1,18.71-.6,11.3,11.3,0,0,1,3,.41,3,3,0,0,0,.07.79,4.16,4.16,0,0,1-.45.32l-11.21,5.29a11.89,11.89,0,0,1-1.81.66,86.6,86.6,0,0,1-9.67,2.18c-4.54.7-9.11,1.18-13.68,1.6-.53.05-1.15-.12-1.51.44-.21.32.64.74,1.58.76h1.1a96.92,96.92,0,0,0,14.5-1.63c.52-.1,1.05-.39,1.62.06-.25.78-1,1-1.6,1.37-4.56,2.75-9,5.69-13.37,8.74a15.42,15.42,0,0,0-3.38,2.8c-.22.27-.42.64,0,.94a.62.62,0,0,0,.75,0l1.12-.79c3.94-2.87,8.1-5.4,12.27-7.91a4.09,4.09,0,0,1,2.33-1,4,4,0,0,1-.39.74c-2.64,2.58-4.69,5.65-7.07,8.45-1.37,1.6-2.57,3.35-3.83,5a3.75,3.75,0,0,0-.91,2c0,.26,0,.57.38.62a.81.81,0,0,0,.48-.09,1.38,1.38,0,0,0,.37-.39c3.9-5.58,8.42-10.66,12.85-15.82a21.87,21.87,0,0,1,7.52-5.86,189.1,189.1,0,0,1,18-6.9c.35-.11.71-.19,1.06-.31a.72.72,0,0,1,.94.26c.08.15-.09.51-.26.69-1.13,1.2-2.32,2.34-3.42,3.58a17.16,17.16,0,0,1-4.55,3.85c-5.87,3.22-11.45,7-17.39,10.08l-.48.27c-.33.21-.58.54-.36.89s.63.27,1,.11.86-.34,1.26-.55c1.06-.55,2.13-1.1,3.16-1.7,3.5-2,7-4.06,10.49-6.06.4-.23.83-.84,1.46-.19-1.72,2.38-3.43,4.76-5.17,7.13a28.24,28.24,0,0,0-3.86,7.87,9.88,9.88,0,0,0-.37,1.61.62.62,0,0,0,.33.67.49.49,0,0,0,.69-.12l0,0a14.9,14.9,0,0,0,1.1-1.9,35.53,35.53,0,0,1,4.92-8.25c1.66-2,3.3-4,4.85-6a69.32,69.32,0,0,1,15.82-14.8,7.1,7.1,0,0,1,2.49-1.12c2-.5,4.09-1,6.14-1.54.39-.1.87-.37,1.27.37-1,1.34-2,2.74-3,4.17a7,7,0,0,1-1.83,1.64,120.29,120.29,0,0,0-16.23,14,1.83,1.83,0,0,0-.43.67.53.53,0,0,0,.13.48.63.63,0,0,0,.47.2c.49,0,.78-.42,1.11-.74,3.69-3.58,7.64-6.87,11.56-10.19.47-.39.9-.91,1.63-.89a1.37,1.37,0,0,1-.07.45c-1.55,2.49-3.13,5-4.66,7.48-.76,1.25-1.44,2.56-2.13,3.85a.71.71,0,0,0,.19,1,.87.87,0,0,0,1.22-.16h0a5.34,5.34,0,0,0,.5-.65c1.06-1.61,2.16-3.2,3.16-4.85,1.71-2.84,3.64-5.52,5.57-8.2.16-.23.28-.24.45.09,0,.23-.06.46-.1.68-1.17,3.68-2,7.45-2.82,11.21a5.49,5.49,0,0,0-.13,1.34c0,.12.22.3.37.34a.55.55,0,0,0,.49-.11,4.82,4.82,0,0,0,.64-1.18c.4-1.41.76-2.84,1.09-4.27a78.58,78.58,0,0,1,4.37-13.62,19.74,19.74,0,0,1,2.06-3.56,3.62,3.62,0,0,1,2.2-1.52c1.87-.45,3.69-1.09,5.55-1.6A33.81,33.81,0,0,1,247.82,306.78Z"/><path class="cls-16" d="M247.82,306.78c-.16.23-.29.48-.47.69-4.49,5.45-7.38,11.79-10.17,18.2-1.32,3-2.66,6-4,9.06a14,14,0,0,1-3,4.23c-.53.52-1,1.08-1.52,1.6a22,22,0,0,1-2,1.87c-2.93,2.14-4,1.84-6.68,0a20.72,20.72,0,0,1-3.15-3.06c-.51-.52-.94-1.13-1.44-1.66a1.4,1.4,0,0,0-1.91-.43,1.33,1.33,0,0,0-.42.43,16.57,16.57,0,0,0-2.22,3.46,26,26,0,0,1-7.73,9.19A14.52,14.52,0,0,1,197.7,353a6.29,6.29,0,0,1-6.52-1.87,5.27,5.27,0,0,1-1.33-2.65c-.24-1.26-.32-2.55-.49-3.82-.07-.52.18-1.1-.31-1.63-.7,0-.92.73-1.37,1.11s-.93.89-1.41,1.31c-6.61,5.79-14.16,8.67-23,7.49a19.33,19.33,0,0,1-7.91-2.95s13.51,1.3,27.18-8.63,15.11.33,22.06-3.22,7.37-13.71,18-13.08,6.32,2.42,12.48-2.75,12.4-14.9,12.4-14.9"/><path class="cls-12" d="M247.82,306.78a34.67,34.67,0,0,0-5.32,1.39c-1.86.51-3.68,1.15-5.55,1.6a3.62,3.62,0,0,0-2.2,1.52,19.74,19.74,0,0,0-2.06,3.56,78.58,78.58,0,0,0-4.37,13.62c-.33,1.43-.69,2.86-1.09,4.27a4.82,4.82,0,0,1-.64,1.18.55.55,0,0,1-.49.11.48.48,0,0,1-.37-.34,5.49,5.49,0,0,1,.13-1.34c.85-3.76,1.65-7.53,2.82-11.21,0-.22.08-.45.1-.68-.17-.33-.29-.32-.45-.09-1.93,2.68-3.86,5.36-5.57,8.2-1,1.65-2.1,3.24-3.16,4.85a5.34,5.34,0,0,1-.5.65.87.87,0,0,1-1.22.16h0a.71.71,0,0,1-.19-1c.69-1.29,1.37-2.6,2.13-3.85,1.53-2.51,3.11-5,4.66-7.48a1.37,1.37,0,0,0,.07-.45,2.55,2.55,0,0,0-1.63.89c-3.92,3.32-7.87,6.61-11.56,10.19-.33.32-.62.7-1.11.74a.63.63,0,0,1-.47-.2.53.53,0,0,1-.13-.48,1.83,1.83,0,0,1,.43-.67,120.29,120.29,0,0,1,16.23-14,7,7,0,0,0,1.83-1.64c1-1.43,2-2.83,3-4.17-.4-.74-.88-.47-1.27-.37-2,.5-4.09,1-6.14,1.54a7.1,7.1,0,0,0-2.49,1.12,69.32,69.32,0,0,0-15.82,14.8c-1.55,2.06-3.19,4-4.85,6a35.53,35.53,0,0,0-4.92,8.25,14.9,14.9,0,0,1-1.1,1.9.5.5,0,0,1-.69.17l0,0a.62.62,0,0,1-.33-.67,9.88,9.88,0,0,1,.37-1.61,28.24,28.24,0,0,1,3.86-7.87c1.74-2.37,3.45-4.75,5.17-7.13-.63-.65-1.06,0-1.46.19-3.51,2-7,4-10.49,6.06-1,.6-2.1,1.15-3.16,1.7-.4.21-.84.37-1.26.55s-.78.22-1-.11,0-.68.36-.89l.48-.27c5.94-3.13,11.52-6.86,17.39-10.08a17.16,17.16,0,0,0,4.55-3.85c1.1-1.24,2.29-2.38,3.42-3.58.17-.18.34-.54.26-.69-.17-.36-.56-.39-.94-.26s-.71.2-1.06.31a189.1,189.1,0,0,0-18,6.9,21.87,21.87,0,0,0-7.52,5.86c-4.43,5.16-8.95,10.24-12.85,15.82a1.38,1.38,0,0,1-.37.39.81.81,0,0,1-.48.09c-.35-.05-.41-.36-.38-.62a3.75,3.75,0,0,1,.91-2c1.26-1.69,2.46-3.44,3.83-5,2.38-2.8,4.43-5.87,7.07-8.45a4,4,0,0,0,.39-.74,4.09,4.09,0,0,0-2.33,1c-4.17,2.51-8.33,5-12.27,7.91l-1.12.79a.62.62,0,0,1-.75,0c-.42-.3-.22-.67,0-.94a15.42,15.42,0,0,1,3.38-2.8c4.37-3.05,8.81-6,13.37-8.74.6-.36,1.35-.59,1.6-1.37-.57-.45-1.1-.16-1.62-.06a96.92,96.92,0,0,1-14.5,1.63h-1.1c-.94,0-1.79-.44-1.58-.76.36-.56,1-.39,1.51-.44,4.57-.42,9.14-.9,13.68-1.6a86.6,86.6,0,0,0,9.67-2.18,11.89,11.89,0,0,0,1.81-.66q5.61-2.62,11.21-5.29a4.16,4.16,0,0,0,.45-.32,2.33,2.33,0,0,0,.51-.11c.21-.11.54-.28.54-.43s-.32-.36-.6-.35a4.35,4.35,0,0,0-.52.1,11.3,11.3,0,0,0-3-.41,119.28,119.28,0,0,0-18.71.6,8.05,8.05,0,0,1-1.09.11c-.26,0-.61-.09-.54-.45a.88.88,0,0,1,.44-.62,7.34,7.34,0,0,1,1.86-.46c1.92-.2,3.85-.34,5.77-.49l3.85-.26c-.28-.75-.88-.73-1.38-.88-5-1.43-9.77-3.71-14.58-5.74a4.15,4.15,0,0,1-1.09-.8.5.5,0,0,1,0-.49.53.53,0,0,1,.39-.29,4.2,4.2,0,0,1,1.83.49c3.33,1.33,6.66,2.63,10,4a5.16,5.16,0,0,0,2.69.47c-2.15-1.56-4-2.89-5.83-4.24a20.68,20.68,0,0,1-3.52-3.08c-.29-.33-.78-.67-.47-1.14s.78,0,1.14.17a5,5,0,0,1,.66.48c3.05,2.21,6.07,4.47,9.16,6.62a23.11,23.11,0,0,0,11.94,4.53,13.92,13.92,0,0,1,1.92.21,15.33,15.33,0,0,0,8.06-1,156.48,156.48,0,0,1,17.31-5.45c.59-.17,1.27-.17,1.7-.73,0-.44-.35-.37-.58-.41-11.15-2.23-22.43-2.37-33.73-2.16-2.21,0-4.41.08-6.61.1a.53.53,0,0,1-.53-.53.54.54,0,0,1,.47-.56c.63-.1,1.27-.19,1.91-.23a177.39,177.39,0,0,1,18.45-.3,9.55,9.55,0,0,0,1.18-.1,5.08,5.08,0,0,0-2.59-1.12,135.57,135.57,0,0,1-15.35-6c-1.44-.65-1.93-1.18-1.55-1.5.73-.63,1.42-.07,2,.18,4.75,1.95,9.55,3.78,14.43,5.39,3.93,1.29,7.93,2.28,11.95,3.24a3.66,3.66,0,0,0,.81,0,6.07,6.07,0,0,0,.73.34,1.85,1.85,0,0,0,.47,0c-.08-.15-.12-.34-.25-.44a1.09,1.09,0,0,0-1-.3c-2.89-2.11-6.13-3.63-9.16-5.52q-2.22-1.38-4.39-2.81a3.16,3.16,0,0,1-.62-.53.63.63,0,0,1-.15-.75c.19-.33.47-.2.67-.08,1.52.85,3,1.75,4.52,2.6a127.51,127.51,0,0,0,16,8.05c.76.31,1.52.63,2.3.89,3.17,1,6.28,1.6,9.64.43a82.62,82.62,0,0,1,8.8-2.06l9.47-1.53a1.68,1.68,0,0,1,1.32.05.93.93,0,0,1,.27.69,1.29,1.29,0,0,1-.48.64,9.3,9.3,0,0,1-2.64,1.44c-2.34.78-4.68,1.57-7,2.37C250,305.92,249,306.36,247.82,306.78Zm-35.09,9.92V317c.09,0,.2,0,.25-.06s0-.16,0-.24Z"/><path class="cls-14" d="M222.72,301.64a1.09,1.09,0,0,1,1,.3c.13.1.17.29.25.44a1.85,1.85,0,0,1-.47,0,6.07,6.07,0,0,1-.73-.34Z"/><path class="cls-14" d="M204,314.93a4.35,4.35,0,0,1,.52-.1c.28,0,.59.06.6.35s-.33.32-.54.43a2.33,2.33,0,0,1-.51.11A3,3,0,0,1,204,314.93Z"/><path class="cls-14" d="M212.73,316.7H213v.24c0,.05-.16,0-.25.06Z"/><path class="cls-12" d="M492.28,316.85a26.9,26.9,0,0,0-24.32-2.4,29.83,29.83,0,0,0-12.06,8.68,30.66,30.66,0,0,0-2.53,3.67,25.26,25.26,0,0,0-3.52,8.19,29.28,29.28,0,0,0,2,19.56c.25.56.49,1.13.76,1.69,5.24,10.91,17.19,17.71,28.91,16.24a25.31,25.31,0,0,0,14.19-6.36,31.8,31.8,0,0,0,10.08-16.57,30.09,30.09,0,0,0-1.28-17.63A29.23,29.23,0,0,0,492.28,316.85Z"/><path class="cls-17" d="M495.4,325.17a24.19,24.19,0,0,0-14.28-8.36,19.09,19.09,0,0,0-7.56.49A23.13,23.13,0,0,0,461,323.92a26.25,26.25,0,0,0-7.18,13.27,24.7,24.7,0,0,0,1.76,15.32,27.36,27.36,0,0,0,3,5.72,24.35,24.35,0,0,0,14.34,9.22,18.52,18.52,0,0,0,8.88-.09,41.48,41.48,0,0,0,6.9-2.57,17.14,17.14,0,0,0,6.68-5.43,28.62,28.62,0,0,0,5.19-11.16C502.31,339.76,501.21,331.93,495.4,325.17Z"/><path class="cls-14" d="M475.28,336.85a16.71,16.71,0,0,1,1.34,4.54,2.23,2.23,0,0,1-.31,1.51c-.26.37-.56.73-1.07.55-2.53-.84-4.91-1.9-6.63-4.08a5.39,5.39,0,0,1-1.09-3.44,3.25,3.25,0,0,1,1-2.41c1.35-1.36,2.94-1.84,4.61-.23a4.84,4.84,0,0,1,.86,1C474.42,335.12,474.84,336,475.28,336.85Z"/><path class="cls-14" d="M482.69,341.82c-1.51.7-2.31.37-2.52-.85-.39-2.15-.76-4.31,0-6.47,1.06-2.87,3.62-3.65,6.05-1.81,2.15,1.63,2.41,3.47.78,5.64-.27.35-.57.68-.87,1C485.07,340.46,483.46,340.9,482.69,341.82Z"/><path class="cls-14" d="M488.62,348.64a2.65,2.65,0,0,1,.13,1.8,3.89,3.89,0,0,1-2.88,2.78c-1.28.4-2.18-.35-3-1.18a28.44,28.44,0,0,1-3.5-5.21,1.57,1.57,0,0,1-.17-.76,1,1,0,0,1,.89-1.09,13.62,13.62,0,0,1,7.2,2.09A3.2,3.2,0,0,1,488.62,348.64Z"/><path class="cls-14" d="M474.8,346.74c1-.46,1.6-.21,1.78.49a43,43,0,0,1,1,4.36,5.7,5.7,0,0,1-.31,2.32,3,3,0,0,1-3.65,2.17,2.9,2.9,0,0,1-.81-.34c-2.29-1.3-3.82-4.41-1.06-6.73C472.8,348.12,474,347.35,474.8,346.74Z"/><path class="cls-18" d="M500.29,324.12a32.17,32.17,0,0,1,4.22,7.8,30.09,30.09,0,0,1,1.28,17.63,31.8,31.8,0,0,1-10.08,16.57,25.31,25.31,0,0,1-14.19,6.36c-10.51,1.31-21.2-4-27.08-13,0,0,20.91-10.53,31.73-20.17S500.29,324.12,500.29,324.12Z"/><path class="cls-12" d="M257.19,203a26.93,26.93,0,0,0-24.32-2.36,29.74,29.74,0,0,0-12.06,8.68,30.66,30.66,0,0,0-2.53,3.67,25.06,25.06,0,0,0-3.51,8.18,29.24,29.24,0,0,0,2,19.57c.25.56.49,1.13.76,1.68,5.25,10.92,17.2,17.71,28.91,16.24a25.24,25.24,0,0,0,14.19-6.36,31.72,31.72,0,0,0,10.09-16.57,30.14,30.14,0,0,0-1.29-17.62A29.11,29.11,0,0,0,257.19,203Z"/><path class="cls-17" d="M260.31,211.32A24.23,24.23,0,0,0,246,203a19.14,19.14,0,0,0-7.57.49,23.36,23.36,0,0,0-12.63,6.63,26.3,26.3,0,0,0-7.18,13.26,24.67,24.67,0,0,0,1.76,15.31,27.69,27.69,0,0,0,3,5.73,24.45,24.45,0,0,0,14.33,9.27,18.4,18.4,0,0,0,8.88-.1,40.67,40.67,0,0,0,6.91-2.56,17.38,17.38,0,0,0,6.67-5.44,28.21,28.21,0,0,0,5.19-11.16C267.22,225.9,266.12,218.08,260.31,211.32Z"/><path class="cls-14" d="M240.19,223a16.71,16.71,0,0,1,1.34,4.54,2.12,2.12,0,0,1-.31,1.51c-.26.36-.56.72-1.07.55-2.52-.84-4.91-1.9-6.63-4.08a5.42,5.42,0,0,1-1.09-3.45,3.3,3.3,0,0,1,.95-2.4c1.35-1.36,2.94-1.85,4.62-.23a5.11,5.11,0,0,1,.85,1C239.33,221.27,239.75,222.14,240.19,223Z"/><path class="cls-14" d="M247.6,228c-1.51.69-2.3.37-2.52-.85-.38-2.15-.76-4.31,0-6.47,1.07-2.87,3.62-3.65,6-1.81,2.15,1.62,2.41,3.46.79,5.64a12.09,12.09,0,0,1-.88,1C250,226.64,248.37,227,247.6,228Z"/><path class="cls-14" d="M253.54,234.78a2.68,2.68,0,0,1,.12,1.81,3.94,3.94,0,0,1-2.88,2.78c-1.28.4-2.18-.35-3-1.19a28.44,28.44,0,0,1-3.5-5.21,1.79,1.79,0,0,1-.17-.75,1,1,0,0,1,.88-1.1h0a13.61,13.61,0,0,1,7.2,2.1A3.29,3.29,0,0,1,253.54,234.78Z"/><path class="cls-14" d="M239.71,232.89c1-.47,1.61-.22,1.79.49a43,43,0,0,1,1,4.36,5.53,5.53,0,0,1-.31,2.32,3,3,0,0,1-3.65,2.17,2.9,2.9,0,0,1-.81-.34c-2.29-1.31-3.82-4.41-1-6.73A32.91,32.91,0,0,1,239.71,232.89Z"/><path class="cls-19" d="M514,198.21a15.06,15.06,0,0,1,9-1.5,10.13,10.13,0,0,1,8.37,6.71,9.63,9.63,0,0,1-.1,6.61c-1.41,4.38-4.55,7-8.73,8.65-6.87,2.69-14-3.46-14.38-9.35a12.23,12.23,0,0,1,.73-5.68C510,201,511.38,198.75,514,198.21Zm9.73,7.53a6.65,6.65,0,0,0-4.65-3.79,2.2,2.2,0,0,0-2.83,1.12,6.5,6.5,0,0,0-.59,5.34,5.6,5.6,0,0,0,4.83,4.1,2,2,0,0,0,1.57-.46c2.52-1.93,2.78-3.59,1.7-6.31Z"/><path class="cls-19" d="M295,240.64a15,15,0,0,1,5.45-7.34,10.11,10.11,0,0,1,10.68-1,9.52,9.52,0,0,1,4.52,4.82c2,4.12,1.61,8.2-.26,12.29-3.08,6.7-12.44,7.2-16.85,3.26a12.58,12.58,0,0,1-3.42-4.59C294,245.46,293.41,242.83,295,240.64Zm12.24-1.34a6.63,6.63,0,0,0-6,.51,2.21,2.21,0,0,0-1.26,2.78,6.49,6.49,0,0,0,3.29,4.24,5.6,5.6,0,0,0,6.32-.4,2.06,2.06,0,0,0,.8-1.42c.42-3.16-.54-4.53-3.2-5.74Z"/><path class="cls-19" d="M290.26,271.7c3.59-1.67,7.08-1,10.39.69a8.64,8.64,0,0,1,4.42,5.94,10.83,10.83,0,0,1-1.33,8.88c-2.09,3-5.29,5.34-9.67,4.23a12.64,12.64,0,0,1-8.34-6.38,10.28,10.28,0,0,1,.31-10.35c.66-1.19,1.93-1.74,3-2.46A7.45,7.45,0,0,1,290.26,271.7Zm6.74,8c-.64-1.42-2.27-2.41-3.2-2.08a2.84,2.84,0,0,0,.25,5.2,2.28,2.28,0,0,0,2.23.25,2.59,2.59,0,0,0,.94-2.55c-.07-.27-.16-.54-.25-.8Z"/><path class="cls-4" d="M562.05,204.78a6.08,6.08,0,0,0-4.15-2.23,10.59,10.59,0,0,0-6.59,1.34,24,24,0,0,0-6.41,5.25A39.83,39.83,0,0,0,536,225.36c-.94,3.42-1.8,6.86-2.69,10.29a41.23,41.23,0,0,1-1.9,5.72c-1.1,2.55-2.65,4.48-5.68,4.37-1.17.34-2.29.59-3.36,1a6.45,6.45,0,0,0-4.46,5.49,30.45,30.45,0,0,0-.26,3.44,68.84,68.84,0,0,0,.75,9.73c.17,1.52.27,3.05.31,4.58a4,4,0,0,1-2.69,4.29c-.81.29-1.59.66-2.39,1-3.72,1.36-5.53,3.86-5.55,7.84a23.3,23.3,0,0,0,.56,5.71c.54,2.13,1.07,4.27,1.56,6.42a26.9,26.9,0,0,1,.59,3.1,4.89,4.89,0,0,1-2.34,4.91,32.53,32.53,0,0,1-3.94,2.32c-3.18,1.4-4.51,4-4.94,7.21a22.3,22.3,0,0,0,.2,6.87c.65,3.68,1.37,7.35,2.1,11a73.49,73.49,0,0,1,.85,23.44,19.38,19.38,0,0,1-1.9,6.58c-.87,1.71-1.66,3.46-2.42,5.22a14.6,14.6,0,0,0-.84,2.73c-.17.71.59,1.22,1.32.92a1.71,1.71,0,0,0,.72-.43c1.81-2.7,4-5.12,5.4-8.12,2.88-6.27,6.17-12.35,8.67-18.79a9.75,9.75,0,0,1,4.7-5.21,38.74,38.74,0,0,1,6.74-3.17c2.19-.68,4.31-1.61,6.52-2.24a12.54,12.54,0,0,0,5.08-3.1A14,14,0,0,0,541,314.92c-.17-.95-.36-1.88-.53-2.83a6.82,6.82,0,0,1,2.84-7,25,25,0,0,1,2.91-1.84c.83-.49,1.74-.83,2.54-1.35,3.48-2.23,5.91-5.11,5.79-9.57,0-1.24,0-2.48-.09-3.72-.16-1.43-.33-2.86-.39-4.3a10.17,10.17,0,0,1,4.72-9.55c.87-.59,1.71-1.22,2.56-1.84a8.59,8.59,0,0,0,3.47-9.61c-.13-.56-.28-1.12-.46-1.66-.62-1.71-1.26-3.41-1.9-5.11a57.72,57.72,0,0,1-2.69-8.49,19.82,19.82,0,0,1-.26-7.12,100.5,100.5,0,0,1,2.71-11.75c.65-2.5,1.37-5,1.93-7.51a26.36,26.36,0,0,0,.23-12A11.45,11.45,0,0,0,562.05,204.78Z"/><path class="cls-20" d="M562.48,256.47c.64,1.7,1.28,3.4,1.9,5.11.18.54.33,1.1.46,1.66a8.59,8.59,0,0,1-3.47,9.61c-.85.62-1.69,1.25-2.56,1.84a10.17,10.17,0,0,0-4.72,9.55c.06,1.44.23,2.87.39,4.3.14,1.24.06,2.48.09,3.72.12,4.46-2.31,7.34-5.79,9.57-.8.52-1.71.86-2.54,1.35a25,25,0,0,0-2.91,1.84,6.82,6.82,0,0,0-2.84,7.05c.17.95.36,1.88.53,2.83a14,14,0,0,1-4.33,13.56,12.54,12.54,0,0,1-5.08,3.1c-2.21.63-4.33,1.56-6.52,2.24a38.74,38.74,0,0,0-6.74,3.17,9.79,9.79,0,0,0-4.7,5.21c-2.5,6.44-5.79,12.52-8.67,18.79-1.38,3-3.59,5.42-5.4,8.12a1.71,1.71,0,0,1-.72.43c-.73.3-1.49-.21-1.32-.92a15.38,15.38,0,0,1,.84-2.73c.76-1.76,1.55-3.51,2.42-5.22a19.38,19.38,0,0,0,1.9-6.58,73.49,73.49,0,0,0-.85-23.44c-.73-3.67-1.45-7.34-2.1-11,0,0,9.09-.31,31.59-25.87S562.48,256.47,562.48,256.47Z"/><path class="cls-21" d="M521.76,307.07a5,5,0,0,0,2.28-1.66,92,92,0,0,1,9.51-8.68c1.87-1.47,3.62-3.12,5.49-4.59,1.34-1.06,2.79-2,4.22-2.95a1.19,1.19,0,0,1,1.47,0c-.77.63-1.47,1.25-2.21,1.82A186.21,186.21,0,0,0,527,304.48a100.91,100.91,0,0,0-7.15,7.77,11.9,11.9,0,0,0-1.94,3.8,96.32,96.32,0,0,1-3.66,9,1,1,0,0,0,0,.79.75.75,0,0,0,1,.08,9.46,9.46,0,0,0,1.14-.86,76.73,76.73,0,0,1,12.87-9.42,10.78,10.78,0,0,1,4.53-1.65h0a6.59,6.59,0,0,1-2.8,1.88,34.85,34.85,0,0,0-6.24,4,94.62,94.62,0,0,0-11.5,9.93,10.07,10.07,0,0,0-2.66,4.35c-.54,1.83-1.17,3.64-1.78,5.45,0,.15-.27.36-.4.35a.5.5,0,0,1-.42-.57.06.06,0,0,1,0,0,26.27,26.27,0,0,1,1.25-4.7c.42-1.17.74-2.37,1.1-3.57a5.61,5.61,0,0,0,.14-2c-.16-2.28-.21-4.56-.36-6.84a21.87,21.87,0,0,0-.36-2.27,8.51,8.51,0,0,1-.28-2.84,4,4,0,0,0-.59-2.75c-.2-.34-.31-.74.21-.91a.78.78,0,0,1,.95.47,11.33,11.33,0,0,1,1,5,22.41,22.41,0,0,0,.73,5.09.5.5,0,0,0,.36.34.68.68,0,0,0,.48-.21,2.48,2.48,0,0,0,.45-.73c1.7-4.66,3.43-9.33,5.07-14a15.08,15.08,0,0,0,.81-5.33c-.09-3.62-.38-7.22-.56-10.83a85.35,85.35,0,0,0-1.6-10.19,8.18,8.18,0,0,1-.12-1.4c0-.12.24-.25.39-.34a.25.25,0,0,1,.24.07,8.44,8.44,0,0,1,1.19,1.92,12.79,12.79,0,0,1,.81,4.5,11.79,11.79,0,0,0,.29,3.13,20.62,20.62,0,0,1,.54,4.83,13.59,13.59,0,0,0,.63,3.28,1,1,0,0,0,1.1-.87c1.27-3.61,2.49-7.23,3.76-10.83,1-2.84,1-5.82,1.34-8.76.09-.85,0-1.72.16-2.57a51.67,51.67,0,0,0,0-11.12c-.29-3-.46-6.08-.68-9.12a1.31,1.31,0,0,1,.06-.27.3.3,0,0,1,.4-.31c.23.06.4.13.45.25a6.66,6.66,0,0,1,.52,3.09,5.28,5.28,0,0,0,.15,2.27c.8,2.6.56,5.31.9,8a44.77,44.77,0,0,1-.11,6.85c0,.28.08.57.41.59a.62.62,0,0,0,.45-.29c.66-1.48,1.33-3,1.92-4.47.84-2.14,1.59-4.3,2.41-6.44,2.36-6.15,4.8-12.28,7.1-18.47,1.16-3.13,2.06-6.36,3.15-9.52,1.94-5.63,3.21-11.43,4.81-17.15.15-.55.37-1.08.57-1.61a.28.28,0,0,1,.24-.13c.15.07.38.19.38.29a7.41,7.41,0,0,1-.14,1.41q-2,8.37-4.12,16.76c-1.39,5.58-3,11.07-4.86,16.52-1.44,4.26-2.57,8.62-4,12.87-1.57,4.51-3.37,8.94-5.07,13.41l-.63,1.6c-.11.29-.13.58.14.76a.55.55,0,0,0,.74-.18c.86-1,1.7-2.06,2.57-3.07A58,58,0,0,1,545,269.24c1.23-.9,2.32-2,3.51-2.94a10.15,10.15,0,0,1,2.94-1.74.63.63,0,0,1,.53.1.52.52,0,0,1,0,.72l0,0c-.64.57-1.3,1.13-2,1.66A118.36,118.36,0,0,0,535.72,280c-1.88,2-3.71,4.12-5.4,6.31a22,22,0,0,0-3.36,6c-1.67,4.58-3.44,9.12-5.15,13.69a4.68,4.68,0,0,0-.11,1.12c0,.05-.12.08-.16.14s0,.1,0,.16Z"/><path class="cls-22" d="M533.76,314a.48.48,0,0,1,.08-.25c.21,0,.19.1-.07.26Z"/><path class="cls-4" d="M320.36,297.23a5.5,5.5,0,0,1,1.89-3.9,9.8,9.8,0,0,1,5.62-2.55,22.55,22.55,0,0,1,7.59.45,36.68,36.68,0,0,1,15.37,7.26c2.54,2,5,4.13,7.54,6.2a36.75,36.75,0,0,0,4.49,3.23c2.19,1.3,4.38,1.9,6.58.19,1-.38,2-.8,3-1.07a6,6,0,0,1,6.28,1.68c.7.77,1.37,1.57,2,2.41a67.11,67.11,0,0,1,4.69,7.64c.69,1.22,1.44,2.42,2.23,3.58a3.67,3.67,0,0,0,4.31,1.73c.76-.21,1.54-.36,2.29-.57,3.51-1,6.2-.11,8.35,2.84a21.59,21.59,0,0,1,2.66,4.55c.76,1.87,1.51,3.75,2.3,5.61a19.59,19.59,0,0,0,1.24,2.62,4.41,4.41,0,0,0,4.37,2.39,28.16,28.16,0,0,0,4.19-.4c3.12-.67,5.5.55,7.55,2.71a21.07,21.07,0,0,1,3.55,5.21c1.51,3.09,2.94,6.2,4.37,9.32a67.07,67.07,0,0,0,12,17.89,17.63,17.63,0,0,0,5,3.87c1.56.8,3.1,1.67,4.6,2.57a14.6,14.6,0,0,1,2.1,1.58.82.82,0,0,1-.48,1.39,1.57,1.57,0,0,1-.77.08c-2.8-1-5.75-1.65-8.39-3.13-5.52-3.11-11.23-5.86-16.56-9.3A9,9,0,0,0,424,372a35.6,35.6,0,0,0-6.72,1.28c-2,.67-4.07,1.13-6.05,1.84a11.46,11.46,0,0,1-5.45.43,12.8,12.8,0,0,1-10.53-7.74c-.38-.8-.74-1.6-1.12-2.39a6.3,6.3,0,0,0-5.92-3.71,23.58,23.58,0,0,0-3.15.19c-.87.09-1.73.32-2.61.37-3.79.22-7.15-.62-9.46-4-.65-.94-1.37-1.83-1.94-2.83s-1.3-2.3-2-3.4a9.37,9.37,0,0,0-8.66-4.56h-2.89a7.9,7.9,0,0,1-7.76-5.27,13.31,13.31,0,0,1-.55-1.49c-.46-1.6-.9-3.21-1.34-4.83a56.75,56.75,0,0,0-2.57-7.75,18.73,18.73,0,0,0-3.64-5.44,96,96,0,0,0-8.34-7.27c-1.83-1.51-3.71-3-5.48-4.54a24.07,24.07,0,0,1-6.62-8.76A10.42,10.42,0,0,1,320.36,297.23Z"/><path class="cls-23" d="M331.6,314l1.73,1.41a96,96,0,0,1,8.34,7.27,18.73,18.73,0,0,1,3.64,5.44,57.21,57.21,0,0,1,2.57,7.75c.44,1.62.88,3.23,1.34,4.83a13.31,13.31,0,0,0,.55,1.49,7.9,7.9,0,0,0,7.76,5.27h2.89a9.37,9.37,0,0,1,8.66,4.56c.72,1.1,1.37,2.26,2,3.4a30.27,30.27,0,0,0,1.94,2.83c2.31,3.37,5.67,4.21,9.46,4a25.61,25.61,0,0,0,2.61-.37,23.58,23.58,0,0,1,3.15-.19,6.3,6.3,0,0,1,5.92,3.71c.38.79.74,1.59,1.12,2.39a12.8,12.8,0,0,0,10.53,7.74,11.46,11.46,0,0,0,5.45-.43c2-.71,4.05-1.17,6.05-1.84A35.6,35.6,0,0,1,424,372a9,9,0,0,1,6.3,1.35c5.33,3.44,11,6.19,16.56,9.3,2.64,1.48,5.59,2.09,8.39,3.13a1.57,1.57,0,0,0,.77-.08.81.81,0,0,0,.72-.89.84.84,0,0,0-.24-.5,14.6,14.6,0,0,0-2.1-1.58c-1.5-.9-3-1.77-4.6-2.57a17.63,17.63,0,0,1-5-3.87,67.07,67.07,0,0,1-12-17.89c-1.43-3.12-2.86-6.23-4.37-9.32a21.07,21.07,0,0,0-3.55-5.21c-2.05-2.16-4.43-3.38-7.55-2.71a28.16,28.16,0,0,1-4.19.4,4.41,4.41,0,0,1-4.37-2.39,19.59,19.59,0,0,1-1.24-2.62c-.79-1.86-1.54-3.74-2.3-5.61a21.59,21.59,0,0,0-2.66-4.55c-2.15-3-4.84-3.83-8.35-2.84-.75.21-1.53.36-2.29.57a3.67,3.67,0,0,1-4.31-1.73c-.79-1.16-1.54-2.36-2.23-3.58,0,0-24.19-7.09-34.52-7.11A84.7,84.7,0,0,0,331.6,314Z"/><path class="cls-21" d="M405.41,351.58a4.75,4.75,0,0,1-2.59,0,87.69,87.69,0,0,0-11.75-1.34c-2.18-.08-4.36-.36-6.55-.45-1.57-.07-3.15,0-4.73.08a1.09,1.09,0,0,0-1.09.78c.91.06,1.76.14,2.62.16a170.2,170.2,0,0,1,18.85,1.64,91.31,91.31,0,0,1,9.5,1.92,11.28,11.28,0,0,1,3.49,1.77,88,88,0,0,0,7.57,4.73.91.91,0,0,1,.43.6c0,.39-.36.58-.73.6a7.17,7.17,0,0,1-1.31,0,70.43,70.43,0,0,0-14.66-.09,9.93,9.93,0,0,0-4.26,1.22h0a6.15,6.15,0,0,0,3.1-.11,32.33,32.33,0,0,1,6.81-.37A87.1,87.1,0,0,1,424,363.89a9.55,9.55,0,0,1,4.32,1.8c1.39,1.07,2.83,2.08,4.26,3.1a.53.53,0,0,0,.49,0,.46.46,0,0,0,0-.64l0,0a25.29,25.29,0,0,0-3.46-2.83c-.94-.64-1.83-1.36-2.73-2.06a4.77,4.77,0,0,1-1.18-1.39c-1.11-1.78-2.3-3.51-3.42-5.28a19.47,19.47,0,0,1-.95-1.88,7.69,7.69,0,0,0-1.33-2.26,3.7,3.7,0,0,1-1-2.37c0-.36-.17-.71-.65-.56a.69.69,0,0,0-.45.86,10.16,10.16,0,0,0,1.94,4.28,21.11,21.11,0,0,1,2.2,4.18.5.5,0,0,1-.09.44.58.58,0,0,1-.46.11,2.34,2.34,0,0,1-.73-.3c-3.78-2.55-7.57-5.09-11.32-7.69a13.58,13.58,0,0,1-3.47-3.54c-1.89-2.73-3.62-5.57-5.42-8.34a76.06,76.06,0,0,1-4.3-8.44,7.79,7.79,0,0,0-.67-1.11c-.06-.08-.31-.05-.47,0s-.14.12-.14.18a7.21,7.21,0,0,0,.15,2.07,11.4,11.4,0,0,0,1.82,3.78,11.67,11.67,0,0,1,1.47,2.48,18.2,18.2,0,0,0,2.2,3.89,13.46,13.46,0,0,1,1.3,2.77,1,1,0,0,1-1.28-.05l-8.64-6c-2.27-1.57-3.91-3.75-5.71-5.78-.52-.59-1-1.26-1.5-1.83a46.7,46.7,0,0,1-6-8.26c-1.41-2.41-2.93-4.76-4.4-7.14,0-.07-.13-.11-.19-.18a.3.3,0,0,0-.41-.07s-.05,0-.06.07-.23.31-.19.43a5.81,5.81,0,0,0,1.27,2.57,5,5,0,0,1,1.11,1.78c.8,2.36,2.45,4.25,3.62,6.4a39.67,39.67,0,0,0,3.77,5c.16.2.25.47,0,.66a.53.53,0,0,1-.49,0c-1.29-.75-2.58-1.49-3.83-2.29-1.77-1.14-3.5-2.34-5.26-3.49-5.07-3.3-10.18-6.55-15.22-9.9-2.56-1.71-5-3.63-7.48-5.39-4.47-3.14-8.54-6.77-12.81-10.16-.41-.32-.85-.6-1.29-.89a.28.28,0,0,0-.25,0c-.07.13-.18.35-.12.42a5.83,5.83,0,0,0,.86,1q6,5.12,12.08,10.2c4,3.4,8.22,6.6,12.51,9.66,3.36,2.4,6.56,5,9.94,7.39,3.59,2.51,7.32,4.84,11,7.24l1.33.86c.23.15.41.35.3.63a.5.5,0,0,1-.64.27h0c-1.19-.29-2.38-.61-3.57-.9a53.25,53.25,0,0,0-12.51-1.44c-1.4,0-2.8-.22-4.2-.3a9.91,9.91,0,0,0-3.12.29.57.57,0,0,0-.34.37.45.45,0,0,0,.34.55h.05c.78.08,1.58.14,2.37.17a110.88,110.88,0,0,1,17.52,1.92c2.49.49,5,1.07,7.41,1.78a20.51,20.51,0,0,1,5.72,2.64c3.71,2.5,7.47,4.92,11.2,7.4a4.28,4.28,0,0,1,.69.78h.19l.09.11Z"/><path class="cls-22" d="M400.2,363.17c-.07,0-.18-.16-.2-.15s-.08.18.2.16Z"/><path class="cls-12" d="M376,380a188.67,188.67,0,0,1-9.33-17.25c-2-4.32-4-8.6-5.92-13a81.73,81.73,0,0,1-6.13-22.59,24.74,24.74,0,0,1,.48-8.91A14.18,14.18,0,0,1,360.8,310a11,11,0,0,1,6.21-1.92,38.13,38.13,0,0,1,13.21,2.15c8.75,2.82,16.84,7.07,24.84,11.51a98.29,98.29,0,0,1,9.71,5.92c8.85,6.4,17.5,13,24.75,21.27a119.18,119.18,0,0,1,10.32,13.36,35.62,35.62,0,0,1,5.84,14.84c.13.95.55,1.85.69,2.8a30.35,30.35,0,0,1-1.31,14.52,26.36,26.36,0,0,1-6.9,10.71A26.94,26.94,0,0,1,436,411.48a67.47,67.47,0,0,1-17.27,1.89,32.25,32.25,0,0,1-16.9-4.47,27,27,0,0,1-4.06-2.9,102.15,102.15,0,0,1-17.25-19.53C378.86,384.05,377.18,381.64,376,380Zm70.85-17.78a92,92,0,0,0-7.14-9.61,80.79,80.79,0,0,0-8.75-9.46c-3.29-3-6.81-5.82-10.31-8.62-2.26-1.81-4.61-3.52-7-5.14a153.62,153.62,0,0,0-15.55-8.93,118.18,118.18,0,0,0-11.73-5.38c-2-.8-4.18-1.38-6.24-2.13a29.59,29.59,0,0,0-8.79-1.5,20.77,20.77,0,0,0-3.94.26,7.21,7.21,0,0,0-3.65,1.42,14,14,0,0,0-5.27,7.65,22.43,22.43,0,0,0-.57,7.07,69.94,69.94,0,0,0,4,17.94c1.22,3.48,2.79,6.81,4.28,10.19,1.59,3.61,3.27,7.19,5.08,10.69a126.85,126.85,0,0,0,8.4,14.62,12.84,12.84,0,0,0,1.19,1.75c2.22,2.28,3.55,5.21,5.68,7.58,1.4,1.56,2.69,3.23,4.1,4.8,2.11,2.36,4.46,4.46,6.79,6.61a27.17,27.17,0,0,0,11.91,6.48,32.15,32.15,0,0,0,11.76,1c.44-.05.88-.06,1.32-.07a44.79,44.79,0,0,0,15.68-3,20,20,0,0,0,7.22-4.69c2.48-2.61,4.89-5.28,5.86-8.94.31-1.17.69-2.36,1.09-3.52,1.27-3.7,1-7.48.38-11.2-.29-1.7-.65-3.44-1.08-5.14a11.27,11.27,0,0,0-.29-1.28C450.05,368.23,448.86,364.82,446.88,362.23Z"/><path class="cls-17" d="M446.88,362.23a92,92,0,0,0-7.14-9.61,80.79,80.79,0,0,0-8.75-9.46c-3.29-3-6.81-5.82-10.31-8.62-2.26-1.81-4.61-3.52-7-5.14a153.62,153.62,0,0,0-15.55-8.93,118.18,118.18,0,0,0-11.73-5.38c-2-.8-4.18-1.38-6.24-2.13a29.59,29.59,0,0,0-8.79-1.5,20.77,20.77,0,0,0-3.94.26,7.21,7.21,0,0,0-3.65,1.42,14,14,0,0,0-5.27,7.65,22.43,22.43,0,0,0-.57,7.07,69.94,69.94,0,0,0,4,17.94c1.22,3.48,2.79,6.81,4.28,10.19,1.59,3.61,3.27,7.19,5.08,10.69a126.85,126.85,0,0,0,8.4,14.62,12.84,12.84,0,0,0,1.19,1.75c2.22,2.28,3.55,5.21,5.68,7.58,1.4,1.56,2.69,3.23,4.1,4.8,2.11,2.36,4.46,4.46,6.79,6.61a27.17,27.17,0,0,0,11.91,6.48,32.15,32.15,0,0,0,11.76,1c.44-.05.88-.06,1.32-.07a44.79,44.79,0,0,0,15.68-3,20,20,0,0,0,7.22-4.69c2.48-2.61,4.89-5.28,5.86-8.94.31-1.17.69-2.36,1.09-3.52,1.27-3.7,1-7.48.38-11.2-.29-1.7-.65-3.44-1.08-5.14a11.27,11.27,0,0,0-.29-1.28C450.05,368.23,448.86,364.82,446.88,362.23Z"/><path class="cls-24" d="M432.13,358.79A20.14,20.14,0,0,0,409.42,353c-6.05,2.54-10.24,6.79-12.23,12.94a20.74,20.74,0,0,0,2.33,18.43,24,24,0,0,0,3.21,4.17,20.06,20.06,0,0,0,12.38,5.85,19.5,19.5,0,0,0,13-3.2c2-1.29,3.25-3.18,4.72-4.91a20.69,20.69,0,0,0,4.27-9.77C438.34,369.84,436.38,363.86,432.13,358.79Z"/><path class="cls-25" d="M409.54,358.64c-2.88.33-5.29,1.21-6.41,4.17-.25.66-.55,1.29-.86,1.92a15,15,0,0,0-.47,11.77,10.22,10.22,0,0,0,2.95,4.63,8.53,8.53,0,0,0,7.62,1.94,9.84,9.84,0,0,0,3.33-1.51,7.72,7.72,0,0,0,2.44-2,19.73,19.73,0,0,0,2.11-4.51c1.06-3.46.38-6.79-.89-10S413,358.27,409.54,358.64Z"/><path class="cls-4" d="M255,369.28c-6.46,7.43-22.46,1.3-26.26,10.37-2.79,6.68,5.12,14.52,2,21.05C226.92,408.77,211,405.3,209,414c-1,4.42,2.81,8.82,2,13.28s-5.68,6.7-9.25,9.5c-11.21,8.79-10.93,25.94-6.74,39.55C198.9,489.11,206.3,502,218.68,507c1.78.73,3.8,1.29,5.62.67,4.74-1.61,3.89-8.8.87-12.78s-7.48-7.73-7.24-12.72c.2-4.1,3.76-7.37,7.63-8.74s8.07-1.27,12.17-1.52a17.18,17.18,0,0,0,7.25-1.67c5.23-2.9,6.6-10,5.32-15.87s-4.51-11.08-6.33-16.76c-1.37-4.29-1.68-9.58,1.54-12.73,4-3.93,11.19-2.35,15.54-5.91s3.74-10.63,1-15.55-7.25-8.81-9.89-13.81S255,369.28,255,369.28Z"/><path class="cls-4" d="M178.11,396.84c-4.93,3.29-11.56,1.84-17-.4-4.57-1.86-9.19-4.24-14-4.65a4.67,4.67,0,0,0-4.69,2.94c-1.21,3-1.45,6.6-3.38,9.25-2.84,3.92-8.39,4.63-13.21,4.17s-9.74-1.73-14.41-.46c-7,1.9-11.4,9-13.28,16.07A44.4,44.4,0,0,0,103.8,459c2.09.16,3-2.59,3-4.69.11-4.8-.53-9.62,0-14.39s2.63-9.69,6.77-12.13c3.85-2.28,8.73-2,13-.69,4.74,1.39,9.14,3.83,14,4.9a5.84,5.84,0,0,0,3.26-.12c5.75-2.06,1.73-10.78,5.08-15.39,1.89-2.6,5.59-3.07,8.77-2.64s6.32,1.53,9.51,1.22C174,414.42,178.11,396.84,178.11,396.84Z"/><path class="cls-4" d="M180.24,265.64a17.13,17.13,0,0,0-11.19-15.15c-3.56-1.24-7.73-1.37-10.46-4-4-3.8-2.6-10.3-3.08-15.8A21.47,21.47,0,0,0,138.59,212c-3.24-.61-6.6-.44-9.83-1.1A28.83,28.83,0,0,1,118.24,206a2.7,2.7,0,0,0-4.2,2.62L116,222.07c.35,2.38.73,4.87,2.14,6.82,2.3,3.18,6.66,4.08,10.58,4,2.39,0,4.88-.3,7.07.65,4.4,1.91,5.47,7.66,5.17,12.44s-1.29,10,1.14,14.1c3.34,5.71,11.3,6.41,17.84,5.45s13.55-2.82,19.52,0"/><g class="cls-26"><path class="cls-4" d="M252.16,389.64c2.64,5,7.06,8.86,9.85,13.77s3.43,12-1,15.55-11.53,2-15.54,5.91c-3.22,3.15-2.91,8.44-1.54,12.73,1.81,5.71,5,10.94,6.32,16.79s-.09,13-5.32,15.87a17.18,17.18,0,0,1-7.25,1.67c-4.1.25-8.3.16-12.17,1.52s-7.43,4.64-7.63,8.74c-.24,5,4.22,8.73,7.24,12.72,2.67,3.52,3.65,9.56.55,12,0,0-25.72-11.26-15.33-28.37S234,471.05,236,453.94s-12.47-25.55,1.36-36.8,15.7-2,17.58-11.41A22.35,22.35,0,0,0,252.16,389.64Z"/></g><g class="cls-26"><path class="cls-4" d="M178.11,396.84s-4.14,17.58-10.88,18.25c-3.19.31-6.33-.79-9.51-1.22s-6.88,0-8.77,2.64c-3.35,4.61.67,13.33-5.08,15.39a5.84,5.84,0,0,1-3.26.12c-4.85-1.07-9.25-3.51-14-4.9-4.3-1.27-9.18-1.59-13,.69-4.14,2.44-6.2,7.36-6.77,12.13s.07,9.59,0,14.39c0,2.1-1,4.85-3,4.69,0,0-12.79-28.35,3.62-36.4s23.71,1.66,30-1.55,5.37-12.35,14.52-13.28,9.62,3.37,16.64.23S178.11,396.84,178.11,396.84Z"/></g><g class="cls-27"><path class="cls-12" d="M175.4,264.33a15.24,15.24,0,0,1,4,1.25"/></g><g class="cls-26"><path class="cls-4" d="M175.4,264.33c-5-.83-10.36.48-15.48,1.22-6.54,1-14.5.26-17.84-5.45-2.43-4.13-1.45-9.31-1.14-14.1s-.77-10.53-5.17-12.44c-2.19-.95-4.68-.68-7.07-.65-3.92.06-8.28-.84-10.58-4a10.67,10.67,0,0,1-1.66-4s2.15,5,10.82,3.48,21.09-4.89,23,5.84-8,17.53,2.58,21.51S175.4,264.33,175.4,264.33Z"/></g><path class="cls-28" d="M555.26,319a91,91,0,0,1-10.82,12.53c-2.94,2.77-5.84,5.57-8.83,8.28-3.25,2.94-6.49,5.9-9.9,8.64s-6.92,5.37-10.55,7.79c-2.77,1.83-5.48,3.77-8.33,5.45-1.66,1-3.36,1.88-5,2.93-2.05,1.33-4.15,2.57-6.23,3.86-.08,0-.15.11-.23.14-2.48.94-4.47,2.76-6.9,3.79a12.47,12.47,0,0,0-3.66,2.06,7.67,7.67,0,0,1-1.87,1c-2.07,1-4.17,1.88-6.24,2.85a18.77,18.77,0,0,0-4.84,2.63,6.52,6.52,0,0,1-1.65.82l-23.58,10.59a10.64,10.64,0,0,1-2.73.94,9.06,9.06,0,0,0-2.23.77c-2.42,1-4.82,2.14-7.24,3.2a12.43,12.43,0,0,1-4.22,1.44,1.23,1.23,0,0,0-.5.16C427,400.36,424,401,421.08,402a51.76,51.76,0,0,1-6.75,2.12c-1.54.28-2.89,1.3-4.52,1.34-4,1.73-8.37,2.52-12.57,3.73a127,127,0,0,1-12.58,2.58c-2.41.44-4.85.7-7.28,1-2,.25-4,.52-6,.72-4.7.49-9.4,1-14.13,1.16a83.12,83.12,0,0,1-9.73.07c-1.84-.15-3.68-.33-5.51-.46a5.75,5.75,0,0,0-2.61.16,66.87,66.87,0,0,0,5.19,8.22,186.48,186.48,0,0,0,12.11,15.89,122.06,122.06,0,0,0,15.16,15,120,120,0,0,0,22.22,14.53,108.89,108.89,0,0,0,10.59,4.7c3.53,1.32,7.11,2.51,10.76,3.54a114.3,114.3,0,0,0,24.08,4.21c3.68.24,7.37.31,11.05.45a6.34,6.34,0,0,1,.78-.14c7.6-.15,14.94-1.88,22.24-3.79,4.07-1.06,8.06-2.41,12.09-3.6,2.79-.82,5.37-2.16,8.22-2.8a11.82,11.82,0,0,0,2.89-1.27c3.22-1.78,6.47-3.53,9.61-5.45,7.63-4.66,15.2-9.42,22-15.34a27.4,27.4,0,0,0,3.28-3A4.66,4.66,0,0,1,534,444c-.08-.34-.21-.69,0-1,.39-.48.77-1,1.19-1.42a98.68,98.68,0,0,0,7.31-9A118.57,118.57,0,0,0,556,408.64a114.64,114.64,0,0,0,5.52-16.21,125.68,125.68,0,0,0,3.68-22.89,128.33,128.33,0,0,0-2-31c-.89-5-2.05-10-3.31-14.91-.63-2.46-1.4-4.89-2.1-7.33A12.47,12.47,0,0,0,555.26,319Z"/><path class="cls-29" d="M557.78,316.34a12.32,12.32,0,0,0-2.52,2.63,91,91,0,0,1-10.82,12.53c-2.94,2.77-5.84,5.57-8.83,8.28-3.25,2.94-6.49,5.9-9.9,8.64s-6.92,5.37-10.55,7.79c-2.77,1.83-5.48,3.77-8.33,5.45-1.66,1-3.36,1.88-5,2.93-2.05,1.33-4.15,2.57-6.23,3.86-.08,0-.15.11-.23.14-2.48.94-4.47,2.76-6.9,3.79a12.47,12.47,0,0,0-3.66,2.06,7.67,7.67,0,0,1-1.87,1c-2.07,1-4.17,1.88-6.24,2.85a18.77,18.77,0,0,0-4.84,2.63,6.52,6.52,0,0,1-1.65.82l-23.58,10.59a10.64,10.64,0,0,1-2.73.94,9.06,9.06,0,0,0-2.23.77c-2.42,1-4.82,2.14-7.24,3.2a12.43,12.43,0,0,1-4.22,1.44,1.23,1.23,0,0,0-.5.16C427,400.36,424,401,421.08,402a51.76,51.76,0,0,1-6.75,2.12c-1.54.28-2.89,1.3-4.52,1.34-4,1.73-8.37,2.52-12.57,3.73a127,127,0,0,1-12.58,2.58c-2.41.44-4.85.7-7.28,1-2,.25-4,.52-6,.72-4.7.49-9.4,1-14.13,1.16a83.12,83.12,0,0,1-9.73.07c-1.84-.15-3.68-.33-5.51-.46a5.75,5.75,0,0,0-2.61.16c-1.37-.34-2.72-.74-4.09-1a24.78,24.78,0,0,1-6.25-2,19.23,19.23,0,0,1-6.74-5c-1.32-1.58-2.12-3.39-1.09-5.34,1.13-2.11,2.64-3.87,5.33-4.13,6.55-.63,13.1-1.16,19.68-1.53a140.94,140.94,0,0,0,20.35-2.54c5.31-1.09,10.65-2.1,16-3.26,3.41-.76,6.78-1.74,10.17-2.59s6.81-1.63,10.2-2.49c2.54-.64,5.06-1.38,7.6-2.07l3-.79a128.67,128.67,0,0,0,14.83-5.37c3-1.21,6-2.55,9.07-3.51,2.44-.77,4.72-1.93,7.15-2.63a50.25,50.25,0,0,0,6.38-2.45,12.79,12.79,0,0,0,2.74-1.55,12.25,12.25,0,0,1,2.32-1.23,29.08,29.08,0,0,0,5.08-2.77,18.84,18.84,0,0,1,3.31-1.63A19.83,19.83,0,0,0,469,358a7.06,7.06,0,0,1,1.65-.82c1.6-.74,3.22-1.42,4.79-2.21a70,70,0,0,0,7.25-4.24c3.14-2.06,6.32-4.08,9.45-6.16,3.79-2.52,7.62-5,11.29-7.67,2.12-1.55,4.38-2.89,6.52-4.41,2.43-1.72,4.81-3.5,7.18-5.3,3.21-2.44,6.41-4.89,9.57-7.39a131.77,131.77,0,0,0,11.93-10.73c4.7-4.74,9.56-9.31,14.43-13.87a6.34,6.34,0,0,1,5.59-1.5,5.79,5.79,0,0,1,2.66,1.1,3.18,3.18,0,0,1,1.28,1.9A18.86,18.86,0,0,1,561,310C559.85,312.08,558.83,314.22,557.78,316.34Z"/><path class="cls-29" d="M450.6,480.91a6.34,6.34,0,0,1,.78-.14c7.6-.15,14.94-1.88,22.24-3.79,4.07-1.06,8.06-2.41,12.09-3.6,2.79-.82,5.37-2.16,8.22-2.8a11.82,11.82,0,0,0,2.89-1.27c3.22-1.78,6.47-3.53,9.61-5.45,7.63-4.66,15.2-9.42,22-15.34a27.4,27.4,0,0,0,3.28-3,4.66,4.66,0,0,1,2.37-1.59,2,2,0,0,1,1.34,1.49c.56,1.85,1.16,3.69,1.71,5.54a4,4,0,0,1-1.25,4.29,72.1,72.1,0,0,1-8.15,6.65,172.83,172.83,0,0,1-18.11,10.74c-1.63.86-3.35,1.55-5,2.31-4.81,2.16-9.58,4.4-14.43,6.47a132.44,132.44,0,0,1-13.65,4.83,108.43,108.43,0,0,1-13,3.27c-1.9.32-3.82.49-5.74.72a3.82,3.82,0,0,1-4-1.95c-1-1.72-2.14-3.42-3.22-5.13C450,482.41,450.5,481.64,450.6,480.91Z"/><path class="cls-29" d="M502.34,399.12a59.91,59.91,0,0,0-3.22,8.08,25.18,25.18,0,0,0-.68,4.14,22.07,22.07,0,0,1-6.87,11.89c-.57.55-1.13,1.11-1.74,1.62a6.21,6.21,0,0,1-2.59,1.23,1.25,1.25,0,0,1-1.47-1,.77.77,0,0,1,0-.15,1.22,1.22,0,0,1,0-.27c.55-7.44,2.76-14.13,8.77-19.06a12.34,12.34,0,0,1,2.12-1.54,3.25,3.25,0,0,0,1.61-2c.49-1.4,1.14-2.74,1.52-4.23-1.44.19-1.43.2-1.94.55a27.39,27.39,0,0,1-8.82,4c-1.77.47-3.52,1.05-5.27,1.6a3.19,3.19,0,0,1-1.81.09.58.58,0,0,1-.47-.66.44.44,0,0,1,.05-.15,2.93,2.93,0,0,1,.53-.9,20.93,20.93,0,0,1,4.14-4,49.4,49.4,0,0,1,5.94-4.31c2.5-1.44,5.07-2.91,8.08-3a2.66,2.66,0,0,0,2.68-2,62.53,62.53,0,0,0,2.09-8.43c.3-1.35.89-2.67.65-4.17-.24.07-.54.06-.7.21a50.7,50.7,0,0,1-6.94,5.18,18.53,18.53,0,0,1-5.76,2.57,27.74,27.74,0,0,0-4,1.37,19.17,19.17,0,0,1-2,.76c-.49.14-1.12.25-1.49-.18s.12-1,.43-1.34a45.36,45.36,0,0,1,7.27-6.85,40.91,40.91,0,0,1,8.07-4.88l6.75-3c1.19-.52,1.51-.42,2.05.81,1,2.32,2.44,4.5,2.74,7.1,1.43,3.24,1.87,6.75,2.66,10.15a52.65,52.65,0,0,1,.74,6.26,2.65,2.65,0,0,1-.07.79,1.13,1.13,0,0,1-.57.83.86.86,0,0,1-1-.21,5.79,5.79,0,0,1-1.4-1.56c-1.18-2.45-3-4.54-3.89-7.16a9.78,9.78,0,0,1-.49-1.76,7.07,7.07,0,0,0-.79-2.23.48.48,0,0,0-.4-.17.53.53,0,0,0-.32.35c-.11.42-.13.87-.24,1.29-.42,1.53-.81,3.06-1.3,4.56a2.06,2.06,0,0,0,.72,2.57c1.51,1.13,2,2.73,2.44,4.49,1.23,4.78,1,9.59.69,14.42a3.3,3.3,0,0,1-.15.76,1,1,0,0,1-1.35.43h0a2,2,0,0,1-.72-.73,31.55,31.55,0,0,1-2.1-5.11c-.61-2.36-1.48-4.66-2.24-7l.09-.32Z"/><path class="cls-29" d="M467,427.19a2.75,2.75,0,0,0-1.37-1.51,27.25,27.25,0,0,1-9.6-9.89c-.36-.59-.87-1.1-1.24-1.69a1.61,1.61,0,0,1-.11-2c.53-.71,1.23-.49,1.91-.24a33.56,33.56,0,0,1,11.34,7c2.25,2.05,3.69,4.64,5.38,7.08a3.56,3.56,0,0,1-.57,4.59,11.87,11.87,0,0,1-3.34,2.51c-1.93.87-3.85,1.74-5.78,2.59a7.34,7.34,0,0,1-1.5.5,87,87,0,0,1-10.17,1.2,2.13,2.13,0,0,1-1-.19,1.23,1.23,0,0,1-.37-1.7,1.15,1.15,0,0,1,.28-.3c2.09-1.44,4.13-3,6.75-3.4a4.66,4.66,0,0,0,1.5-.46c1.37-.83,3-.8,4.46-1.44a.64.64,0,0,0-.65-.44,67.21,67.21,0,0,1-12.23-1.8c-.56-.12-1.06-.16-1.35.44-1.1,2.21-3.18,2.85-5.35,3.39-4,1-7.85.29-11.73-.48a26,26,0,0,1-2.79-.74,1.05,1.05,0,0,1-.79-1.21,1,1,0,0,1,.78-.94c3.93-.84,7.81-2,11.89-2a3.39,3.39,0,0,0,.77-.1c.07,0,.16-.13.15-.19s0-.42-.08-.46a42.58,42.58,0,0,0-8.38-3.09c-5.19.08-9.42-2.32-13.56-5.11-1.84-1.25-3.3-2.88-5-4.23-.7-.55-1.39-1.31-1-2.23s1.35-1,2.28-.86c1.48.18,3,.29,4.45.47a12.89,12.89,0,0,1,5.63,2.09,24.37,24.37,0,0,1,7.37,7,2.4,2.4,0,0,0,1.13,1l8.16,3a1.1,1.1,0,0,0,.51,0c.08,0,.22,0,.23-.11s.1-.39,0-.47a5.42,5.42,0,0,0-.82-.63,21.62,21.62,0,0,1-6.8-6.86,50.74,50.74,0,0,1-2.55-5.5,1.83,1.83,0,0,1,.14-1.53c.2-.46.51-.72,1-.54a8.25,8.25,0,0,1,.93.49,40.68,40.68,0,0,1,13,10.15,16.13,16.13,0,0,1,1.87,3.47c1.67,3.66,1.65,3.72,5.77,4.31,3,.44,6.09.73,9.15,1.05a5.65,5.65,0,0,0,1.29-.13,1.49,1.49,0,0,0,.45.19c.21,0,.32-.1.27-.31a.62.62,0,0,0-.23-.07A3.77,3.77,0,0,0,467,427.19Z"/><path class="cls-29" d="M399.77,420.88a3.62,3.62,0,0,0-1.58,1.72c-.91,1.5-1.72,3.06-2.67,4.53a1.67,1.67,0,0,0,0,2.18c1.87,2.3,1.84,5,1.66,7.73a26.56,26.56,0,0,1-2.41,9.13,4.58,4.58,0,0,1-.57.86.82.82,0,0,1-1.16-.1h0a6.71,6.71,0,0,1-.85-2.2c-.62-3-1.4-6-1.09-9.1a.48.48,0,0,0-.39-.55h0a.58.58,0,0,0-.44.24,27.84,27.84,0,0,0-4,6.77c-.89,2.58-2.8,4.65-4.73,6.58a32.77,32.77,0,0,1-3.3,2.6,5.43,5.43,0,0,1-.91.51,1.51,1.51,0,0,1-1.51,0c-.56-.35-.43-.92-.38-1.42a4.67,4.67,0,0,1,.29-1.28,21,21,0,0,1,6.85-9.78,11,11,0,0,1,2.76-1.49,4.93,4.93,0,0,0,2.72-2.36c.45-.93,1.42-1.55,1.64-2.44-.08-.42-.22-.51-.43-.41a11.93,11.93,0,0,1-4.6.93,65.07,65.07,0,0,1-7.9,0,6,6,0,0,1-1.53-.32.68.68,0,0,1-.54-.8.65.65,0,0,1,.26-.41,7.6,7.6,0,0,1,2.35-1.66c1.78-.76,3.55-1.55,5.29-2.4a18,18,0,0,1,5.29-1.47,8.07,8.07,0,0,1,4.4.44c1,.4,1.19.3,1.76-.56,1.16-1.76,2.26-3.55,3.38-5.34a.69.69,0,0,0,0-.49.48.48,0,0,0-.4-.17,45.86,45.86,0,0,1-7.93,1.76,49.64,49.64,0,0,1-6.56.35,5.48,5.48,0,0,1-2.78-.71.89.89,0,0,1-.35-1.21.71.71,0,0,1,.1-.14,7.83,7.83,0,0,1,1.22-1c1.6-1.07,3.2-2.12,4.82-3.15a4.34,4.34,0,0,1,1.21-.52,82.71,82.71,0,0,1,11-2.65c1.21-.16,2.44-.21,3.67-.26a3.47,3.47,0,0,1,3.33,2.13,14.5,14.5,0,0,1,1.62,7.37c0,2.29-.11,4.58-.3,6.85a19.08,19.08,0,0,1-1.18,5.11,4.87,4.87,0,0,1-.63,1.14.81.81,0,0,1-1.13.15.91.91,0,0,1-.2-.24,19.44,19.44,0,0,1-1.65-4.14,43.53,43.53,0,0,1-1.24-9.36,8.37,8.37,0,0,0-.18-1,1.18,1.18,0,0,1,.08-.31Z"/><path class="cls-29" d="M562.17,373.11a3.89,3.89,0,0,1-.91,2.44,88.27,88.27,0,0,1-10.1,12.14c-3.21,3.12-6.36,6.31-9.64,9.35-3.6,3.34-7.49,6.33-11.4,9.31-1.88,1.43-3.67,3-5.55,4.42s-3.64,2.72-5.52,4c-4.11,2.82-8.17,5.72-12.41,8.33-1.93,1.18-3.9,2.35-5.88,3.47a55,55,0,0,0-6.79,4,9.1,9.1,0,0,1-1.87,1l-22.88,10.28a7.13,7.13,0,0,1-2.49.8,2.21,2.21,0,0,0-.77.16c-2.35,1.25-5,1.68-7.43,2.65a53.17,53.17,0,0,1-5.5,1.74c-3.88,1.06-7.76,2.13-11.67,3.06-4.17,1-8.37,1.89-12.58,2.71-3.95.77-7.94,1.37-11.91,2.08-4.41.79-8.89,1.05-13.34,1.46-2.71.26-5.43.38-8.14.53a68.64,68.64,0,0,1-14.18-.74,4,4,0,0,1-2-.57.29.29,0,0,1-.09-.23.32.32,0,0,1,.11-.23,2.71,2.71,0,0,1,.75-.16c1.32,0,2.64-.12,4,0,7.94.53,15.79-.46,23.65-1.27A150.38,150.38,0,0,0,424.74,451c3.24-.73,6.54-1.19,9.79-1.89,2.48-.53,4.92-1.23,7.38-1.87s4.9-1.3,7.35-2a47.52,47.52,0,0,0,6.77-2.05,7.66,7.66,0,0,1,2-.64,11.15,11.15,0,0,0,2.73-.93,9.06,9.06,0,0,1,3.25-1.05,1.16,1.16,0,0,0,.51-.12c2.59-1.34,5.51-1.74,8.15-3,4.61-2.18,9.3-4.2,13.95-6.3a16.69,16.69,0,0,0,4.37-2.42,7.66,7.66,0,0,1,1.87-1,7.93,7.93,0,0,0,2.25-1.35,2.36,2.36,0,0,1,.87-.59c2.51-.89,4.52-2.69,6.93-3.76a33.53,33.53,0,0,0,3.55-2.23c3.28-2,6.38-4.3,9.63-6.36,4.89-3.1,9.27-6.88,13.94-10.28a175.52,175.52,0,0,0,14.27-12c3.71-3.36,7.36-6.78,10.79-10.42,2-2.11,3.71-4.46,5.61-6.64C561.06,373.64,561.36,373.06,562.17,373.11Z"/><path class="cls-29" d="M486.43,449.72l-3.38,1.51c-3,1.3-6.09,2.21-9.11,3.4a105.92,105.92,0,0,1-11.78,3.6q-6.72,1.77-13.55,3.14c-8.25,1.66-16.59,2.79-24.95,3.77-6.29.74-12.59,1.09-18.9,1.3-1.75.06-3.51-.13-5.27-.21-.26,0-.59-.06-.6-.39s.39-.46.74-.5c1.57-.15,3.14-.39,4.72-.47,3.24-.16,6.46-.52,9.68-1s6.25-.87,9.38-1.27c6.7-.86,13.32-2.15,20-3.34q8.14-1.5,16.1-3.74c2.7-.76,5.37-1.58,8-2.42a125.43,125.43,0,0,0,12.85-4.64c1.75-.76,3.72-1,5.42-2,3-1.67,6.09-3.14,9.09-4.76s6.11-3.41,9.12-5.2c2.4-1.42,4.63-3.13,7-4.6,3.51-2.16,6.75-4.7,10.07-7.13s6.23-4.83,9.29-7.32c4.29-3.47,8.59-6.94,12.67-10.67,3.83-3.49,7.69-6.94,11.52-10.42a3.83,3.83,0,0,1,1.43-1,.76.76,0,0,1,.43.14.28.28,0,0,1,0,.25,12.69,12.69,0,0,1-.89,1.28,182.8,182.8,0,0,1-15.92,16.06c-6.07,5.6-12.45,10.81-19,15.81a114.31,114.31,0,0,1-10.53,7.38c-2.47,1.48-4.69,3.4-7.22,4.75s-4.55,3-7.13,3.95a15.43,15.43,0,0,0-3.2,1.79,40.66,40.66,0,0,1-4.73,2.33l-1.44.65Z"/><path class="cls-29" d="M540.8,367.39a4.18,4.18,0,0,0-1.45-1.82,23.31,23.31,0,0,1-6.06-8.5c-.09-.24-.2-.48-.29-.73a.83.83,0,0,1,.14-1,.91.91,0,0,1,1-.22,10.76,10.76,0,0,1,1.43.64,24,24,0,0,1,7.66,6.7,14.24,14.24,0,0,1,2.43,4,2.92,2.92,0,0,0,3.23,2.13h3.93c.11,0,.24-.21.33-.34s0-.16-.06-.23a.56.56,0,0,0-.16-.21,16.18,16.18,0,0,1-5.35-6c-.39-.68-.94-1.27-1.35-1.94a4,4,0,0,1-.45-1.23.93.93,0,0,1,.59-1.17.94.94,0,0,1,.64,0,5.23,5.23,0,0,1,1.67.75c1.82,1.51,3.88,2.69,5.58,4.38a23.41,23.41,0,0,1,2.55,3.32,8.71,8.71,0,0,1,.87,3,1.49,1.49,0,0,1-.22.74,17.72,17.72,0,0,1-6.11,7.41,28.28,28.28,0,0,1-5.51,3l-1,.4a.81.81,0,0,1-1-.2.85.85,0,0,1-.17-1,12.67,12.67,0,0,1,1.75-2.61c1.46-1.52,3-3,4.56-4.37.35-.36.68-.74,1-1.14a13.39,13.39,0,0,0-3.73-.31,2.22,2.22,0,0,0-1.6.8c-4,3.88-9,4.81-14.37,4.41a4.83,4.83,0,0,1-1.5-.45,1.19,1.19,0,0,1-.54-1.61,1.37,1.37,0,0,1,.13-.2,8,8,0,0,1,2.68-2.08c1.46-.62,2.88-1.31,4.32-2a.81.81,0,0,0,.28-.4c.11-.34-.15-.49-.4-.55a10.55,10.55,0,0,1-3.37-1.46,5.06,5.06,0,0,0-2.28-.57,17,17,0,0,1-10.32-5.85,4.25,4.25,0,0,1-1.06-1.79,1.27,1.27,0,0,1,1-1.45l.2,0a10.27,10.27,0,0,1,5.1,1.1,29.27,29.27,0,0,1,7,5.11c2.29,2.4,5.11,3.27,8.24,3.58a.54.54,0,0,0,.15.12.28.28,0,0,0,.13,0Z"/><path class="cls-29" d="M410.79,444.12c-1.33-3.07.11-5.52,3.25-6.15a4.87,4.87,0,0,1,3.77.43,3.75,3.75,0,0,1,1.88,4,4.61,4.61,0,0,1-6.38,3.86C412.12,445.78,411,445.3,410.79,444.12Z"/><path class="cls-29" d="M463,394.18a4.36,4.36,0,0,1,2-.57,3.78,3.78,0,0,1,3.43,2.48c1.21,3.06,0,6.1-3.45,7a3.64,3.64,0,0,1-3.86-1.75,5.56,5.56,0,0,1-.44-5.53C461.14,394.77,462.25,394.64,463,394.18Z"/><path class="cls-29" d="M526.77,391.56c-1-2.5-.12-4.77,2.08-6.44a1.48,1.48,0,0,1,.74-.21,3.89,3.89,0,0,1,4.16,3.6c0,.13,0,.27,0,.4a7.78,7.78,0,0,1-.93,3,3,3,0,0,1-3.14,1.92A3.43,3.43,0,0,1,526.77,391.56Z"/><path class="cls-29" d="M360,423.14c1.9-.87,3.4-.64,4.54.69a3.45,3.45,0,0,1,.23,4.14c-.2.29-.45.54-.64.84-1.49,2.37-5.17,1.49-6.26-.89C357.07,426.35,358.13,424,360,423.14Z"/><path class="cls-29" d="M428.42,468.37a1.23,1.23,0,0,1,.65.06,8.71,8.71,0,0,1,1.26.93,44,44,0,0,0,8.64,5.91,19.52,19.52,0,0,1,2.56,1.78c.35.27.15.86-.3,1a1.68,1.68,0,0,1-1.26.14c-3.91-1.37-7.6-3.1-10.48-6.22a6.67,6.67,0,0,1-1.51-2.71C427.86,468.94,428,468.64,428.42,468.37Z"/><path class="cls-29" d="M553.25,340.9c.79,1.71.07,3-.94,4.15a2.9,2.9,0,0,1-3.34.78,4,4,0,0,1-2.31-3.26,4.5,4.5,0,0,1,1.75-3.39,1.33,1.33,0,0,1,.47-.21C550.23,338.71,552.78,339.23,553.25,340.9Z"/><path class="cls-29" d="M540.53,419.73c0,.15.12.49.18.83a18.74,18.74,0,0,1-.94,10c-.4,1.07-.8,2.13-1.24,3.18a2,2,0,0,1-.61.81.84.84,0,0,1-.72.1c-.2-.08-.47-.37-.45-.55.11-1,.26-2.07.46-3.09a41.64,41.64,0,0,0,1.19-10.37,3.48,3.48,0,0,1,0-.79c.06-.53.16-1.1.81-1.17S540.2,419,540.53,419.73Z"/><path class="cls-29" d="M442.25,470.18a2.83,2.83,0,0,1-.19-.76c0-.84-.66-2,.23-2.43,1.08-.49,1.5.76,2.06,1.5a15.4,15.4,0,0,0,4.84,4.7c1.07.58,2.09,1.27,3.11,1.94a4.7,4.7,0,0,1,1,.84.84.84,0,0,1,0,1,.77.77,0,0,1-.87.43,28.61,28.61,0,0,1-2.71-1,14.5,14.5,0,0,1-7-5.59A4.49,4.49,0,0,1,442.25,470.18Z"/><path class="cls-29" d="M530.9,430.47a10.45,10.45,0,0,1,.48,7.44c-.39,1.35-.75,2.7-1.17,4-.18.6-.48,1.18-1.24,1.18-.57,0-1-.79-.85-1.69s.33-2.08.53-3.12a15.11,15.11,0,0,0-.06-6.79c-.17-.67-.23-1.38-.36-2.07a.76.76,0,0,1,.36-.9,1,1,0,0,1,1.23.13,3.23,3.23,0,0,1,.64.82C530.62,429.79,530.77,430.13,530.9,430.47Z"/><path class="cls-29" d="M492.62,460c.58,1.28,1.17,2.55,1.72,3.84.38.91.21,1.33-.57,1.71s-1.65.38-2.11-.27a4.83,4.83,0,0,1-.5-.92c-.76-1.67-1.48-3.37-2.29-5-.55-1.12-.48-2.39-.94-3.53a.86.86,0,0,1,.46-1.1,1.35,1.35,0,0,1,1.49,0,2.48,2.48,0,0,1,.92,1.24l1.83,4.07Z"/><path class="cls-29" d="M454.64,464.87a.59.59,0,0,1,.75,0,8.12,8.12,0,0,1,1,.86c.95,1,1.88,2.06,2.82,3.09a16.86,16.86,0,0,0,3.57,3.06,8,8,0,0,1,2.57,2.2.88.88,0,0,1,0,1.19.86.86,0,0,1-1,.2c-3-1.49-5.9-3-7.91-5.85a11.19,11.19,0,0,1-2.1-3.59A1.06,1.06,0,0,1,454.64,464.87Z"/><path class="cls-29" d="M520.36,437.13c.39,1.61.89,3.2,1.14,4.83a15.83,15.83,0,0,1-1.19,8.21,1.58,1.58,0,0,1-.46.62,1,1,0,0,1-.72.18.77.77,0,0,1-.52-.5,4.54,4.54,0,0,1,0-1.56,32.72,32.72,0,0,0,0-9.68,22.87,22.87,0,0,1-.17-2.61c0-.2.23-.45.42-.6s.5,0,.72.11A1.73,1.73,0,0,1,520.36,437.13Z"/><path class="cls-29" d="M511.33,444.8c1.2,3.49,1.83,6.89.95,10.43a2.34,2.34,0,0,1-.3.71,1.42,1.42,0,0,1-1.36.62c-.49-.09-.68-.54-.75-1a4.43,4.43,0,0,1-.07-1.31,25.49,25.49,0,0,0-.7-8.07,10.85,10.85,0,0,1-.22-2.34.76.76,0,0,1,.59-.78.89.89,0,0,1,.95.28A15.53,15.53,0,0,1,511.33,444.8Z"/><path class="cls-29" d="M466.45,462.43a1.79,1.79,0,0,1,.52,0,4.22,4.22,0,0,1,1,.84,34.31,34.31,0,0,0,7.18,7.6c.41.32.83.71.57,1.32a1.48,1.48,0,0,1-1.6.63,3.09,3.09,0,0,1-.74-.26,13.38,13.38,0,0,1-6.33-6.4c-.39-.88-.77-1.77-1.07-2.68A.87.87,0,0,1,466.45,462.43Z"/><path class="cls-29" d="M545.17,424.87a.39.39,0,0,1-.25-.05c0-.05-.26-.28-.25-.41a3.21,3.21,0,0,1,.26-1,45.45,45.45,0,0,0,3-11.4,2.7,2.7,0,0,1,.41-1.49.83.83,0,0,1,1.19-.1.71.71,0,0,1,.15.15,4.87,4.87,0,0,1,.49,2.81c-.09,4.31-2,7.89-4.57,11.22A1.94,1.94,0,0,1,545.17,424.87Z"/><path class="cls-29" d="M415.64,470.06a.87.87,0,0,1,1,0c1.11.7,2.25,1.35,3.33,2.09a47.46,47.46,0,0,0,5.76,3.08,24,24,0,0,0,3.22,1c.13,0,.29.31.25.41a1.91,1.91,0,0,1-.43.58.35.35,0,0,1-.24.06c-3.82-.56-7.6-1.28-10.84-3.56a5.53,5.53,0,0,1-2.29-2.78A.8.8,0,0,1,415.64,470.06Z"/><path class="cls-29" d="M478.16,462.44c-.28-.62-.57-1.16-.77-1.74a2.25,2.25,0,0,1-.1-1,1,1,0,0,1,1.56-.69,3.71,3.71,0,0,1,1.29,1.61,30.32,30.32,0,0,0,4,6.7,1.35,1.35,0,0,1,.33.69,1.86,1.86,0,0,1-.27,1,.73.73,0,0,1-.95.15,5.27,5.27,0,0,1-2.35-2C480,465.48,478.61,464.2,478.16,462.44Z"/><path class="cls-29" d="M501.35,452.41a14.77,14.77,0,0,1,1.76,5.2,3.91,3.91,0,0,1-.15,2.32.8.8,0,0,1-.83.52,1,1,0,0,1-.64-.34,2.09,2.09,0,0,1-.46-.93c-.15-1.32-.78-2.51-1-3.78a22.44,22.44,0,0,0-1.26-3.76,4,4,0,0,1-.33-1.26,1,1,0,0,1,.64-1,.79.79,0,0,1,1.06.35l0,.07C500.63,450.74,501,451.71,501.35,452.41Z"/><path class="cls-29" d="M502.34,399.12l.14-.3-.09.32Z"/><path class="cls-30" d="M467,427.19a3.36,3.36,0,0,1,.48-.14c.07,0,.22,0,.23.07s-.06.34-.27.31a1.49,1.49,0,0,1-.45-.19Z"/><path class="cls-30" d="M399.77,420.88l.12-.3a1.18,1.18,0,0,1-.08.31Z"/><path class="cls-30" d="M540.8,367.39l.29.1H541s-.1-.08-.15-.12Z"/><g class="cls-31"><path class="cls-29" d="M555.53,319a92.94,92.94,0,0,1-10.82,12.53c-2.94,2.77-5.84,5.57-8.83,8.28l-4,3.61c.66,2.84,1.26,5.7,1.78,8.58a128.33,128.33,0,0,1,2,31A126.28,126.28,0,0,1,532,405.82,111.87,111.87,0,0,1,526.45,422,118.49,118.49,0,0,1,513,445.87a98.57,98.57,0,0,1-7.3,9c-.42.44-.8.93-1.19,1.41-.25.31-.12.66-.05,1a4.88,4.88,0,0,0-2.37,1.59,27.31,27.31,0,0,1-3.27,3,139.14,139.14,0,0,1-18.46,13.18c1.86-.57,3.72-1.15,5.59-1.7,2.79-.83,5.37-2.17,8.22-2.81a11.82,11.82,0,0,0,2.89-1.27c3.22-1.78,6.47-3.53,9.61-5.45,7.63-4.66,15.2-9.42,22-15.34a27.4,27.4,0,0,0,3.28-3,4.66,4.66,0,0,1,2.37-1.59c-.08-.34-.21-.69,0-1,.39-.48.77-1,1.19-1.42a98.68,98.68,0,0,0,7.31-9,118.61,118.61,0,0,0,13.48-23.83,114.34,114.34,0,0,0,5.52-16.22,125.68,125.68,0,0,0,3.68-22.89,128.33,128.33,0,0,0-2-31c-.89-5-2-10-3.31-14.91-.63-2.46-1.4-4.89-2.1-7.33A12.06,12.06,0,0,0,555.53,319Z"/></g><path class="cls-32" d="M212,477.05s-.11-.57-.32-1.62-.52-2.61-.8-4.61a36.1,36.1,0,0,1-.35-7.27,19.4,19.4,0,0,1,2.71-9.07,14.24,14.24,0,0,1,3.66-4.11,17.44,17.44,0,0,1,5.33-2.49,19.86,19.86,0,0,0,5.4-2.32,7.82,7.82,0,0,0,3-4.89c.86-4.09-.31-8.43-1.12-12.9a25.31,25.31,0,0,1-.46-7,12.61,12.61,0,0,1,2.45-6.75,6.8,6.8,0,0,1,.61-.7l.16-.17.18-.16.32-.29a7,7,0,0,1,.73-.59c.25-.17.49-.35.75-.5a31.48,31.48,0,0,1,3.07-1.69c2-1,3.93-2.11,5.05-3.93a7.84,7.84,0,0,0,1-2.89,12.94,12.94,0,0,0,0-3.17,31,31,0,0,0-1.51-6.24,28.38,28.38,0,0,1-1.45-6.3,10.82,10.82,0,0,1,0-1.61,12.44,12.44,0,0,1,1.06-4.56,17.15,17.15,0,0,1,3.24-4.92,28,28,0,0,1,4.06-3.63,77.17,77.17,0,0,1,8-4.95,49,49,0,0,0,6-3.94,23,23,0,0,0,3.38-3.17c.27-.32.53-.65.77-1l.26-.33-.24.34c-.17.23-.38.58-.73,1A21.52,21.52,0,0,1,263,364a51.29,51.29,0,0,1-5.95,4.18,90,90,0,0,0-7.83,5.12,28.07,28.07,0,0,0-3.86,3.61,16.23,16.23,0,0,0-3,4.7,11.86,11.86,0,0,0-.76,2.74c0,.48-.12,1-.12,1.48a12,12,0,0,0,.06,1.47,28.88,28.88,0,0,0,1.46,6,32.17,32.17,0,0,1,1.61,6.48,11.06,11.06,0,0,1-1.24,6.93,9.42,9.42,0,0,1-2.49,2.62,24,24,0,0,1-3,1.79,31.55,31.55,0,0,0-2.95,1.64l-.67.46c-.21.17-.41.31-.62.49l-.31.3-.14.12-.13.15a5.88,5.88,0,0,0-.52.6,11.14,11.14,0,0,0-2.19,6,23.73,23.73,0,0,0,.39,6.62c.37,2.2.87,4.41,1.15,6.65a20.07,20.07,0,0,1-.14,6.74,10.56,10.56,0,0,1-1.24,3.15,8.12,8.12,0,0,1-2.32,2.42,20.92,20.92,0,0,1-5.76,2.35,16.39,16.39,0,0,0-5.1,2.24,13.6,13.6,0,0,0-3.53,3.8,19.65,19.65,0,0,0-2.84,8.83,35.36,35.36,0,0,0,.11,7.2c.21,2,.44,3.56.59,4.62A13.41,13.41,0,0,0,212,477.05Z"/><path class="cls-32" d="M111.16,421.07l.79-.54a15.34,15.34,0,0,1,2.38-1.32,20.07,20.07,0,0,1,4-1.36,18.55,18.55,0,0,1,5.51-.44,26,26,0,0,1,6.39,1.35,10.49,10.49,0,0,0,3.3.46,7.67,7.67,0,0,0,.8-.11l.44-.11.37-.12a7.1,7.1,0,0,0,1.48-.81,10.37,10.37,0,0,0,2.4-2.63,23.34,23.34,0,0,0,1.74-3.37c.53-1.19,1.05-2.43,1.71-3.64A12.37,12.37,0,0,1,145,405.1a14.56,14.56,0,0,1,7.58-3.3,36,36,0,0,1,7.83-.17c2.51.14,4.9.36,7.15.28a17.29,17.29,0,0,0,6.15-1.19,12.21,12.21,0,0,0,4.28-3.08,9.06,9.06,0,0,0,1.93-3.6,7.18,7.18,0,0,0,.16-2.65c-.11-.61-.2-.93-.2-.93s.11.31.28.92a6.92,6.92,0,0,1,0,2.72,9.59,9.59,0,0,1-1.79,3.87,12,12,0,0,1-4.33,3.52,18.22,18.22,0,0,1-6.41,1.48,58.61,58.61,0,0,1-7.26-.08,34.05,34.05,0,0,0-7.55.25,13.2,13.2,0,0,0-6.8,3c-1.92,1.69-2.92,4.1-4,6.5a15.41,15.41,0,0,1-4.63,6.46,7.85,7.85,0,0,1-1.79.94l-.5.16-.45.1a6.78,6.78,0,0,1-1,.1,10.91,10.91,0,0,1-3.63-.63,25.83,25.83,0,0,0-6.17-1.54,20.36,20.36,0,0,0-9.37,1.26,20.08,20.08,0,0,0-2.49,1.15Z"/><path class="cls-32" d="M128.42,220.32l1-.08a8,8,0,0,1,1.2,0,11,11,0,0,1,1.62.09,18.62,18.62,0,0,1,4.28,1,19.34,19.34,0,0,1,5,2.84,18.93,18.93,0,0,1,4.5,5.1,16.56,16.56,0,0,1,2.36,7.27,73.61,73.61,0,0,1,0,8,31.44,31.44,0,0,0,.11,4,9.71,9.71,0,0,0,.93,3.7,3.25,3.25,0,0,0,.5.67,1.83,1.83,0,0,0,.32.3c.12.09.23.17.36.25a5.81,5.81,0,0,0,1.72.67,6.54,6.54,0,0,0,1,.19c.33,0,.68.12,1,.15.65.08,1.32.13,2,.16,2.67.13,5.34,0,8,0a24.09,24.09,0,0,1,3.88.41c.67.14,1.21.29,1.82.45a10.37,10.37,0,0,1,1.77.65,20.12,20.12,0,0,1,5.71,3.71,19.6,19.6,0,0,1,3.58,4.47,18.36,18.36,0,0,1,1.78,4,12.07,12.07,0,0,1,.41,1.57,11.62,11.62,0,0,1,.2,1.18c.08.64.12,1,.12,1l-.2-1a9.22,9.22,0,0,0-.29-1.15,15.89,15.89,0,0,0-.5-1.52,19.82,19.82,0,0,0-5.63-8,19.19,19.19,0,0,0-5.57-3.35c-.53-.24-1.09-.35-1.64-.54a11.19,11.19,0,0,0-1.77-.38,28.87,28.87,0,0,0-3.71-.32c-2.54-.06-5.22.14-8,0a18.7,18.7,0,0,1-2.1-.15,7.15,7.15,0,0,1-1-.13c-.31,0-.71-.12-1.06-.2a5.52,5.52,0,0,1-3.8-2.53,10.56,10.56,0,0,1-1.07-4.27,32.4,32.4,0,0,1-.07-4.18,71.82,71.82,0,0,0,.14-7.9,16.74,16.74,0,0,0-2-6.87,18.06,18.06,0,0,0-4.12-5,20.54,20.54,0,0,0-4.67-3,17.6,17.6,0,0,0-4.12-1.23,12.19,12.19,0,0,0-1.58-.2,7.88,7.88,0,0,0-1.19,0Z"/></g><path class="cls-10" d="M373,.64a29.55,29.55,0,0,0-3.11,1.41l-1.33.72-.47-.37a2.85,2.85,0,0,0-2.62-.25,4.08,4.08,0,0,1-1.36.28,2.63,2.63,0,0,0-1,.16,1.57,1.57,0,0,1-1,0,2.44,2.44,0,0,0-2.3.49c-.93.62-1.27,1.25-1.42,2.79l-.13,1.23-.7,0a9.71,9.71,0,0,1-3.17-.66,2.24,2.24,0,0,1-.77-.93c-.71-1.34-1.41-1.42-2.34-.3a1.94,1.94,0,0,1-1.28.68,2.16,2.16,0,0,0-1,.39A7.41,7.41,0,0,0,348.43,9c-.1,1.11-.08,1.23.32,1.67,1.35,1.46.19,1.84-1.91.63a2.31,2.31,0,0,0-2.28-.19c-.9.26-2.16,1.53-2.16,2.16a6,6,0,0,0,1.19,2.59l.37.32-.42.63c-.54.81-.54,1,0,1.37s.56.66,0,.91c-.37.16-.48.14-.7-.23a5.79,5.79,0,0,1-.55-1.4,5.79,5.79,0,0,0-.37-1.16c-.31-.52-4,.42-4.19,1.09-.08.24-.26.33-.75.33-1.32,0-1.79-.8-1.79-3.1,0-1.09,0-1.3-.35-1.46s-.9,0-1.21.6c-.19.35-.33.42-.72.33a1.48,1.48,0,0,0-1.58.88,2.49,2.49,0,0,0-.16,2.23c.28.91-.24,1.84-2,3.47a7.07,7.07,0,0,0-1.55,1.86,14.88,14.88,0,0,0-.28,2,3.91,3.91,0,0,0,.14,2,.86.86,0,0,1,.09.91c-.23.5-.45.51-1.24.18-.55-.21-.62-.33-1-1.81a13.17,13.17,0,0,1-.38-2.36c0-.93-.6-1.72-1.28-1.72-.92,0-1.65-.44-2.88-1.69l-1.26-1.3v-1.8c0-3-.54-3.55-2.47-2.23-1.09.75-1.24,1-1.24,1.74s-.67,1.26-1.2,1.12c-.89-.23-1.17.93-.65,2.72l.28.93-.49.4a8.06,8.06,0,0,0-1.28,1.91L311.79,25l-.57-.37-.58-.35L310,25l-.61.67-1.11-.22c-.6-.1-1.49-.29-2-.42-.89-.19-.91-.19-1.54.37s-.65.56-2.07.46a3.13,3.13,0,0,0-2.14.24c-.74.41-1.4.48-1.58.2s-1-.16-1.56.47a2.1,2.1,0,0,1-1.53.77,8,8,0,0,0-1.45.32l-.51.21.1,1.42c.11,1.28.18,1.49.65,2a7.16,7.16,0,0,0,1.23,1c.58.35.7.53.7,1,0,1.35,1.23,3.38,2,3.38a1,1,0,0,1,.79.89,1.8,1.8,0,0,1-.56.88,1.33,1.33,0,0,0-.58,1.25c0,.7,0,.72-1.14,1.31a6.8,6.8,0,0,0-1.6,1.11,1.37,1.37,0,0,1-.73.52,5,5,0,0,0-1.21.37c-.88.34-.95.35-1.43.07-1.08-.65-1.38.39-.42,1.49a5.27,5.27,0,0,1,1.56,3.35c.14,1.72.3,1.92,1.53,1.92a13.06,13.06,0,0,1,1.6.1c.54.12.56.12.44.89-.09.62-.06.86.19,1.13s.28.33-.05.33c-.58,0-.88.54-1,1.75a3.41,3.41,0,0,1-.54,1.81,2.1,2.1,0,0,0,0,2.32,1.13,1.13,0,0,1,.07.84c-.24.88.16,1.68,1.63,3.3,1.18,1.26,1.53,1.54,2.06,1.61a5.83,5.83,0,0,1,1.61.54c.91.42,1.09.44,3,.35,1.11,0,2.26-.12,2.56-.15.51-.06.58,0,.58.35a.71.71,0,0,0,.28.58c.26.14.26.28.07,1.33s-.28,1.16-.7,1.16c-.77,0-1.58,1.24-1.86,2.86-.16.93.09,1.12,1.58,1.26a7.06,7.06,0,0,0,2.93-.33l2.42-.64c.6-.15,1.09-.52,2.3-1.72a6.12,6.12,0,0,0,1.84-2.47,10.74,10.74,0,0,1,.8-1.75,3.47,3.47,0,0,0,.51-1c0-.12.34-.3.74-.42.91-.25,1.89-1.21,1.89-1.88a2.5,2.5,0,0,1,1.72-2,12.51,12.51,0,0,0,1.74-.91,2.63,2.63,0,0,1,1.81-.56,2.75,2.75,0,0,1,2,.72,15.36,15.36,0,0,0,3.46,1.89.8.8,0,0,0,.89-.3l.42-.42,1.74,1.26a17.77,17.77,0,0,0,2.1,1.39,1.38,1.38,0,0,1,.6.86,5.38,5.38,0,0,0,1.19,1.74c.77.82,1,1,1.51,1a1.09,1.09,0,0,0,1.14-.93c0-.22.19-.19,1.18.25a7.41,7.41,0,0,0,1.57.58,10.48,10.48,0,0,1,2.86,3,18.35,18.35,0,0,1,.42,2.55,20.88,20.88,0,0,0,.46,2.68,11,11,0,0,1,.37,2.1l.14,1.58.79.7c.72.65.81.81,1,2.11a3.4,3.4,0,0,0,.6,1.63,2.85,2.85,0,0,1,.49,1.39c.17,1,.16,1.22-.12,1.7-.6,1-.25,2.86.56,3.1a14.13,14.13,0,0,1,3.19,1.11,3.3,3.3,0,0,1,0,1.26c-.09,1-.06,1.1.31,1.53a1.64,1.64,0,0,0,1.18.56c.93.12,1,.14,2.05,1.14A8.89,8.89,0,0,1,358.8,97c.51,1,.81,1.33,1.09,1.37s.45.25.58.65a4.8,4.8,0,0,0,1,1.37,2.6,2.6,0,0,0,1.7.91c2.35.3,3.05.67,3.05,1.58a1.19,1.19,0,0,0,.95,1.14c.6,0,1.34,1.07,1.9,2.72a5.13,5.13,0,0,0,.7,1.52c.12.06.87.32,1.68.56,2.28.72,3.37,1.65,3.37,2.92a10.47,10.47,0,0,0,1.79,3.4,4,4,0,0,0,.93.38,3.4,3.4,0,0,1,2.24,1.51,11.26,11.26,0,0,0,1.3,1.63c.76.79,1,.93,2.72,1.46a15.89,15.89,0,0,1,2.24.86,3.33,3.33,0,0,1,.79,1.19c.72,1.63,1.6,2,3.16,1.32,1.37-.6,2-.62,3-.13a10.22,10.22,0,0,0,3.65,1.13c1.42-.37,1.28-.42,2.53.86a8.62,8.62,0,0,1,1.65,2.29,9.18,9.18,0,0,0,1.29,2c.74.79.81.91.69,1.49a1.5,1.5,0,0,0,1.07,1.75,2.78,2.78,0,0,0,2.51-.19c.54-.26.57-.26,1.24.35a4.47,4.47,0,0,0,1.05.74c.62.19.51.37-.73,1.37-.42.33-.49.52-.53,1.43s0,1.06.35,1.11a3.44,3.44,0,0,0,1.32-.42,5.65,5.65,0,0,1,2.82-.6c1.58-.1,2-.19,2.44-.52s.63-.43,1.17.78c.2.39.65,1.25,1.06,1.93.82,1.39.87,1.83.35,2.79-.37.69-.37.72-.07,1.83s.38,1.17,1.1,1.63a3.3,3.3,0,0,0,1.3.51c.32,0,.49.08.49.24,0,.48.86,1.28,1.86,1.76a12.15,12.15,0,0,1,1.56.89,1.88,1.88,0,0,0,.93.44,3.74,3.74,0,0,0,1.3-.86l.91-.84.67.44c.94.61,1.84,2.52,2,4.38a5.55,5.55,0,0,0,.44,1.83,6.45,6.45,0,0,1,.56,1.38,13.63,13.63,0,0,0,2.07,4c.72.86.75,1,.88,3a12.79,12.79,0,0,0,.52,2.86,8.39,8.39,0,0,1,.46,2.31c0,.85.05,1,.54,1.32a2,2,0,0,1,.77,2.16c-.17,1.19-1,2.12-1.73,2-.44-.07-.74,0-1.46.59a4.09,4.09,0,0,1-1.19.69c-1.12,0-1.25,1-.33,2.45l.63,1-.56,1.28a5.06,5.06,0,0,1-2,2.61,5,5,0,0,0-1.09,1.27c-.54.91-.56,1-.49,2.59.11,2,.25,2.91.51,3.14a18.79,18.79,0,0,0,4.35.55,6,6,0,0,0,3.35-1.11,7.8,7.8,0,0,0,1.88-3.42,5.43,5.43,0,0,1,1.63-2.54,3.42,3.42,0,0,1,1-.39,3,3,0,0,0,2-1.35c.32-.53.35-.91.37-3.91,0-1.84.07-3.49.12-3.68.22-.57,2.09-1.81,3.88-2.56,1.63-.69,1.7-.69,2.23-.41s.67.25,1.37.05c1-.28,1.36-.56,1.51-1.35a7.56,7.56,0,0,1,.19-.94c.05-.16-.14-.55-.44-.88a1.75,1.75,0,0,1-.46-2.11c.35-.84.34-1.52,0-1.92s-.26-.37,0-.95a1.67,1.67,0,0,0,0-1.81,5.31,5.31,0,0,0-2.57-2c-1.18-.6-1.55-.88-3.65-3a4.44,4.44,0,0,0-2.3-1.46c-.68-.21-1.21-.47-1.21-.61a6.73,6.73,0,0,1,1-1.42c1.23-1.49,1.47-2.05,1.47-3.35a2.83,2.83,0,0,1,1.07-2.42,10.75,10.75,0,0,0,1.2-2.19c.68-1.6.79-1.74,2.68-3.55a24.64,24.64,0,0,1,2.14-1.89,2.48,2.48,0,0,1,.7.47l.56.49-1,.36c-.82.29-1,.42-1,.84s0,.52.71.82a3.87,3.87,0,0,0,1.28.35,4.68,4.68,0,0,1,1.4.42c2.35,1.13,3,1.34,4.19,1.34a8.82,8.82,0,0,0,1.93-.21c1.58-.43,2.11.45,3.44,5.61.38,1.47,4.1,4.77,5.42,4.77.54,0,1.4-.84,1.59-1.54.09-.36.3-1.32.44-2.14a11.3,11.3,0,0,1,.91-2.72,5.62,5.62,0,0,0,.65-1.91c0-.62-.08-.76-1.07-1.67a15.22,15.22,0,0,1-2-2.47c-1.19-1.88-2.75-3.37-3.89-3.69-.72-.21-.86-.31-1.16-1s-.46-.82-1.6-1.35c-.7-.31-2.51-1.19-4-1.91-2.66-1.32-2.75-1.37-4.15-2.91a10,10,0,0,0-5-3.18,18.55,18.55,0,0,1-2.54-.93c-.86-.38-2.54-1.07-3.72-1.54-2.79-1.1-3.16-1.3-4-2.09a9.91,9.91,0,0,0-2.19-1.31,15,15,0,0,1-2-1,8,8,0,0,1-1.84-2.76,2.44,2.44,0,0,1,1.16-1.54c.79-.3,2.7-2.11,2.7-2.54a1.14,1.14,0,0,1,.35-.71,1.09,1.09,0,0,0,.35-.52c0-.77-2.33-2.44-3.65-2.63a4.91,4.91,0,0,0-3.4,1.14l-.47.47-.64-.42a2.69,2.69,0,0,0-2.64-.33c-1.09.36-2.71.38-2.71,0s-.64-.65-1.45-.52a8.15,8.15,0,0,1-5-1.6,5.51,5.51,0,0,0-1.44-.7c-.83-.28-.88-.35-1.33-1.4-.56-1.3-1.44-2.18-3.34-3.28-1.7-1-2.1-1.41-2.54-2.6s-.77-1.47-2.1-1.82a4,4,0,0,1-2.71-3.16,14.41,14.41,0,0,0-1-2.49,10.48,10.48,0,0,1-1-2.9A30.18,30.18,0,0,0,400,83.94c-.24-.58-.63-1.58-.88-2.25a17.58,17.58,0,0,0-.68-1.68,3.42,3.42,0,0,1-.26-1.31,4.37,4.37,0,0,0-.2-1.32,4.52,4.52,0,0,0-2-2,22.64,22.64,0,0,1-2.21-1.54,20.54,20.54,0,0,0-2-1.46,21.82,21.82,0,0,1-2.16-1.61,13.32,13.32,0,0,0-3.88-2.37,39.28,39.28,0,0,1-5.8-4.84,5.87,5.87,0,0,1-1.62-3,9.47,9.47,0,0,1-.64-3.07,7.59,7.59,0,0,0-.53-2.59,4.81,4.81,0,0,1-.33-3.42c.19-.74.21-.78.54-.55a.87.87,0,0,0,.65.16,2.33,2.33,0,0,0,1.33-1.65c.07-.42.21-.68.37-.68.39,0,.82-.83.7-1.32A6,6,0,0,0,378.08,45l-.92-.58,0-1.46a3.74,3.74,0,0,0-.28-2,3.66,3.66,0,0,1,0-2.79,6.42,6.42,0,0,0,.26-1.43c0-.48.09-.6.53-.74a8.6,8.6,0,0,0,1.31-.74l.81-.54.19.54c.26.77.72.9,2,.53a12.62,12.62,0,0,0,4.81-2.37c.54-.49,1.35-1.16,1.79-1.47a2,2,0,0,0,.93-1.09c.12-.65.38-.65,2.16,0a13.5,13.5,0,0,0,2.47.54c1.05.11,1.12.09,1.66-.44.81-.79,1.5-.88,2.11-.28.37.33.46.51.31.65-.43.44-.21,1.12.51,1.6a3.19,3.19,0,0,0,.95.45,2,2,0,0,1,.7.21c.67.3,1.16-.21,1.16-1.15a6.11,6.11,0,0,0-1.77-3.6c-.33-.25-1-.79-1.49-1.21l-.9-.77-.08-1.32c-.09-1.38-.25-1.63-1-1.63s-.47-.46.37-1,1.51-1.34,1.51-1.85A4.21,4.21,0,0,0,397,19.46c-1.07-1-1.2-1.1-1.76-1s-.65,0-.79-.23c-.33-.62-.21-1,.39-1.25a4.67,4.67,0,0,0,1.28-1,2.68,2.68,0,0,1,1.49-.9c1-.17,1.21-.68,1-1.75-.16-.65-.19-.67-1.83-1.21a9.05,9.05,0,0,0-2.71-.58,36,36,0,0,1-5.67-.81,9.77,9.77,0,0,0-2-.22,3.59,3.59,0,0,1-1.88-.57c-2-1-3.59-1.45-4.33-1.33s-1.19-.14-2.3-1.17c-.54-.51-.56-.55-.31-1.14.54-1.28.24-1.81-1.11-2-.73-.09-.82-.14-.94-.65a1.35,1.35,0,0,1,.12-1.08,3.37,3.37,0,0,0,.05-2.44C375.36-.15,374.9-.06,373,.64Z"/><path class="cls-10" d="M330.18,123.19a1.56,1.56,0,0,0-.5.85,4.86,4.86,0,0,1-.57,1.22c-.43.62-.5.67-1.09.56a.91.91,0,0,0-1,.37,10.35,10.35,0,0,1-1.34,1,9,9,0,0,0-1.56,1.3,3.94,3.94,0,0,1-1,.82,6.45,6.45,0,0,0-1.16.68,8.07,8.07,0,0,1-3,1.32,1.43,1.43,0,0,1-.81-.51,1.56,1.56,0,0,0-1-.58c-.47,0-.58-.14-.7-.72a1.52,1.52,0,0,0-.53-.86c-.31-.15-.42-.12-.77.28s-.4.67-.4,1.81,0,1.33-.62,1.88-.75,1.1-.42,2.56a6.79,6.79,0,0,1,.18,1.37c0,.54,0,.58.54.54a2.79,2.79,0,0,1,2.23,1.18,7.67,7.67,0,0,0,.74,1.14c.47.59.51.75.47,1.85s-.05,1.2.47,1.36l.53.15,0,2.09c0,2,0,2.14-.47,2.68a2.41,2.41,0,0,0-.51,1.6c-.05,1.39.05,1.54,1.11,1.42.64-.09.85-.05.85.12a.41.41,0,0,1-.22.34c-.46.17-.71,1.58-.74,4l0,2.44-.57.47c-.55.44-.57.49-.46,1.42a8.86,8.86,0,0,1,0,2.72,2,2,0,0,0,.07,1.07c.14.28.09.47-.25,1-.58.83-.56,1.28.05,1.6s.5.31.43,1.19c-.16,2.26-.16,2.33.26,2.39.26,0,.51-.13.79-.49a2.85,2.85,0,0,1,1.45-1.06c.06,0,.09.14.09.32a3.33,3.33,0,0,0,1,2.14A8.78,8.78,0,0,0,326,170c1.76-.61,3.53-2.73,2.84-3.38-.19-.18-.17-.37.14-1.19l.37-1,.7.05c.46,0,.79,0,.91-.19.36-.42,1.22-.16,1.46.44a3.43,3.43,0,0,0,2.16,1.54c.47,0,.56-.08,1.77-2l.79-1.23v-1.9a4.69,4.69,0,0,1,.44-2.73c.4-.81.42-1,.4-3.47,0-5.81,0-5.6.39-6.56a2.3,2.3,0,0,0-.14-2.51,3,3,0,0,1-.67-2.48,9.8,9.8,0,0,1,2.56-3.22c.84-.74,1.05-1,1.05-1.44a1.87,1.87,0,0,0-1.24-1.47.72.72,0,0,1-.41-.5c0-.21-.19-1-.35-1.87-.68-3.9-.73-4-2.14-5-.45-.33-.49-.42-.28-.75a1.26,1.26,0,0,0-.22-1.7c-.39-.25-.44-.41-.44-1.32s0-1.07-.85-1.91a3,3,0,0,0-1.19-.88,2.83,2.83,0,0,0-1,.37c-.61.33-.7.33-.84.09a2.38,2.38,0,0,0-1.4-.81A1.44,1.44,0,0,0,330.18,123.19Z"/><path class="cls-10" d="M423.79,181.88c-1,.39-2.48,1-3.23,1.39l-1.39.68-.44-.33a1.63,1.63,0,0,0-.86-.35,6.18,6.18,0,0,1-1.17-.2,1.37,1.37,0,0,0-1.35.18,2.39,2.39,0,0,1-.83.37,24.18,24.18,0,0,0-2.71,1.21c-2.25,1.09-2.64,1.23-4,1.35-.82.07-2.17.12-3,.1a4,4,0,0,0-3.23.93,2.46,2.46,0,0,1-1.18.44,10.4,10.4,0,0,1-3.61-1.73c-1.42-1.11-1.68-1.25-2.42-1.25s-1.1-.3-1.1-1.23c0-1.45-1-1.68-2-.45a2.05,2.05,0,0,1-1.28.87,8,8,0,0,0-2,1c-1.7,1.11-2.19,1.09-3.19-.1-.37-.46-.79-.79-1-.79a2.44,2.44,0,0,0-1.09.6,6.92,6.92,0,0,1-1.37.86c-.93.38-1.28.94-1.52,2.5-.14.76-.3,1.72-.39,2.14a10.81,10.81,0,0,0,.33,3.76,1,1,0,0,0,1.2.73c.28-.07.42,0,.61.41s.26.49,2.07.59c2.37.16,2.82.3,3.44,1s.72.84,1.82,1a3.33,3.33,0,0,1,2.46,1.19,10.39,10.39,0,0,0,2.77,1.55c1.54.63,1.91.86,2.19,1.35a2.78,2.78,0,0,0,1.3,1,6.67,6.67,0,0,0,1.14.42,2.08,2.08,0,0,1,.75.44,5.26,5.26,0,0,0,3.65.73,3.5,3.5,0,0,1,2.65.55,6.67,6.67,0,0,1,2.31,2,7.65,7.65,0,0,1,1.32,2c.42,1.52.39,1.49,1.61,1.49h1.11l1.24,1.12c1.55,1.39,2.23,1.65,3.13,1.23a1,1,0,0,1,1.24,0,1.61,1.61,0,0,0,2-.12c.33-.35.38-.62.38-1.72a3.55,3.55,0,0,1,.35-1.91c.18-.34.48-.9.65-1.25a4.07,4.07,0,0,1,1.14-1.19c.46-.34.84-.72.84-.9a3.52,3.52,0,0,0-1.26-2c-.28-.11-.33-.21-.23-.58s.16-.88.21-1.35c.11-1,.16-.88-1.31-2.14a1.74,1.74,0,0,1-.69-1.39,2.37,2.37,0,0,1,.55-1.95,5.7,5.7,0,0,0,.63-1.22.72.72,0,0,1,.24-.44,4.1,4.1,0,0,0,.43-1.37,2.9,2.9,0,0,1,1-1.93,9.78,9.78,0,0,0,1.49-2.28c.39-.82,1-2,1.42-2.72a4.92,4.92,0,0,0,.72-1.72,2.25,2.25,0,0,1,.7-1.3c.77-.89.86-1.26.39-1.68S425.77,181.11,423.79,181.88Z"/></svg>